<?xml version="1.0" encoding="UTF-8" standalone="no"?>
<!-- Created with Inkscape (http://www.inkscape.org/) -->

<svg
   width="2048"
   height="2048"
   viewBox="0 0 541.86665 541.86665"
   version="1.1"
   id="svg5"
   sodipodi:docname="logo3.svg"
   inkscape:version="1.1 (c68e22c387, 2021-05-23)"
   xmlns:inkscape="http://www.inkscape.org/namespaces/inkscape"
   xmlns:sodipodi="http://sodipodi.sourceforge.net/DTD/sodipodi-0.dtd"
   xmlns="http://www.w3.org/2000/svg"
   xmlns:svg="http://www.w3.org/2000/svg">
  <sodipodi:namedview
     id="namedview7"
     pagecolor="#ffffff"
     bordercolor="#666666"
     borderopacity="1.0"
     inkscape:pageshadow="2"
     inkscape:pageopacity="0.0"
     inkscape:pagecheckerboard="0"
     inkscape:document-units="mm"
     showgrid="false"
     inkscape:zoom="0.18529742"
     inkscape:cx="-94.442762"
     inkscape:cy="358.8825"
     inkscape:window-width="1920"
     inkscape:window-height="1017"
     inkscape:window-x="-8"
     inkscape:window-y="-8"
     inkscape:window-maximized="1"
     inkscape:current-layer="g51"
     width="2048mm"
     units="px" />
  <defs
     id="defs2" />
  <g
     inkscape:label="Layer 1"
     inkscape:groupmode="layer"
     id="layer1">
    <g
       id="g51"
       transform="matrix(0.26462011,0,0,0.26462011,-296.79433,-166.25989)">
      <path
         id="Path"
         fill="none"
         stroke="#000000"
         stroke-width="1"
         d="" />
      <path
         id="Selection"
         fill="none"
         stroke="#000000"
         stroke-width="1"
         d="m 2129.5083,722.39527 c 0,0 -15.22,0.72 -15.22,0.72 0,0 -10.98,0.85 -10.98,0.85 0,0 -11.84,0.77 -11.84,0.77 0,0 -49.02,4.54 -49.02,4.54 -56.68,6.99 -112.8,19.17 -167.34,36.12 -144.37,44.88 -277.71,125.56 -384.56,232.4 0,0 -21.9,21.98003 -21.9,21.98003 -71.38,76.61 -128.55,161.8 -172.23,256.93 -35.1,76.45 -60.4,162.01 -73.3,245.1 -4.15,26.71 -7.17,53.37 -9.02,80.3 0,0 -0.76,8.45 -0.76,8.45 0,0 -0.85,14.37 -0.85,14.37 0,0 0,9.29 0,9.29 0,0 -0.85,12.68 -0.85,12.68 0,0 0,43.95 0,43.95 0,0 0.82,10.14 0.82,10.14 0,0 0,11.83 0,11.83 0,0 0.88,10.99 0.88,10.99 0,0 2.39,32.12 2.39,32.12 3.19,32.98 7.66,65.51 14.17,98.04 23.2,115.96 67.84,227.61 131.92,327.08 55.76,86.56 125.26,163.52 205.64,227.82 79.84,63.87 173.3,116.17 269.62,150.56 59.81,21.36 121.35,37.06 184.24,46.13 23.36,3.36 46.65,5.85 70.15,7.45 0,0 8.46,0.77 8.46,0.77 0,0 14.36,0.85 14.36,0.85 0,0 9.3,0 9.3,0 0,0 12.68,0.84 12.68,0.84 0,0 43.95,0 43.95,0 0,0 14.37,-0.84 14.37,-0.84 0,0 50.71,-3.24 50.71,-3.24 60.12,-5.82 119.42,-16.5 177.48,-33.46 219.6,-64.14 407.88,-204.39 531.88,-396.88 45.74,-71.01 81.09,-147.79 106.79,-228.19 15.91,-49.82 26.87,-101.27 34.32,-152.98 0,0 6.61,-64.24 6.61,-64.24 0,0 0.77,-8.45 0.77,-8.45 0,0 0.84,-14.37 0.84,-14.37 0,0 0,-9.29 0,-9.29 0,0 0.85,-10.99 0.85,-10.99 0,0 0,-45.64 0,-45.64 0,0 -0.85,-13.52 -0.85,-13.52 0,0 -0.84,-22.82 -0.84,-22.82 0,0 -0.77,-8.45 -0.77,-8.45 0,0 -6.73,-65.08 -6.73,-65.08 -7.82,-56.23 -20.75,-111.8 -38.71,-165.66 -44.2,-132.61 -113.77,-249.26 -209.11,-351.59 0,0 -21.9,-21.98003 -21.9,-21.98003 -114.99,-114.99 -258.41,-197.7 -414.98,-241.23 -44.65,-12.41 -95.08,-22.74 -141.14,-27.67 0,0 -44.8,-4.16 -44.8,-4.16 0,0 -8.45,-0.77 -8.45,-0.77 0,0 -14.37,-0.85 -14.37,-0.85 0,0 -9.3,0 -9.3,0 0,0 -12.67,-0.72 -12.67,-0.72 0,0 -27.05,0 -27.05,0 0,0 -23.66,0 -23.66,0 z"
         style="display:inline;fill:#c9975c;fill-opacity:1" />
      <path
         id="Selection1"
         fill="none"
         stroke="#000000"
         stroke-width="1"
         d="m 2147.2583,945.75527 c -4.44,0.63 -7.43,0.48 -11.84,0.49 0,0 -10.14,0.77 -10.14,0.77 0,0 -48.17,4.54 -48.17,4.54 -43.31,5.7 -86.03,15.49 -127.63,28.78 -164.47,52.57003 -306.3,166.24003 -395.03,314.12003 -12.29,20.48 -24.08,41.67 -34.05,63.39 -29.09,63.35 -49.07,125.41 -59.78,194.39 -3.46,22.26 -5.79,44.34 -7.33,66.77 0,0 -0.8,8.45 -0.8,8.45 0,0 0,10.14 0,10.14 0,0 -0.82,10.15 -0.82,10.15 0,0 0,35.49 0,35.49 0,0 0.85,18.6 0.85,18.6 0,0 0.77,10.14 0.77,10.14 1.82,26.55 4.87,52.32 9.3,78.6 18.02,106.84 63.05,210.65 126.36,298.35 40.03,55.45 88.57,104.71 142.48,146.7 59.33,46.23 127.83,83.01 198.61,108.28 47.91,17.11 99.9,29.84 150.45,35.89 0,0 44.79,4.17 44.79,4.17 0,0 8.45,0.8 8.45,0.8 0,0 10.14,0 10.14,0 0,0 10.15,0.82 10.15,0.82 0,0 35.49,0 35.49,0 0,0 14.37,-0.85 14.37,-0.85 0,0 43.95,-3.24 43.95,-3.24 53.77,-5.37 107.83,-17.36 158.89,-35.08 95.77,-33.24 183.61,-86.19 257.78,-155.3 0,0 16.91,-16.83 16.91,-16.83 86.94,-86.94 150.92,-195.86 183.89,-314.4 10.76,-38.71 18.48,-78.35 22.47,-118.33 0,0 2.47,-29.58 2.47,-29.58 0,0 0.8,-8.45 0.8,-8.45 0,0 0,-10.14 0,-10.14 0,0 0.82,-8.46 0.82,-8.46 0,0 0,-37.18 0,-37.18 0,0 -0.82,-10.15 -0.82,-10.15 0,0 0,-10.14 0,-10.14 0,0 -0.8,-8.45 -0.8,-8.45 0,0 -2.47,-29.58 -2.47,-29.58 -4.37,-43.76 -13.1,-87.19 -25.73,-129.31 -34.59,-115.28 -95.45,-218.24 -180.63,-303.42 0,0 -16.91,-16.83 -16.91,-16.83 -82.65,-77 -179.27,-132.22 -287.36,-164.65003 -42.12,-12.63 -85.55,-21.36 -129.31,-25.73 0,0 -29.58,-2.47 -29.58,-2.47 0,0 -8.45,-0.77 -8.45,-0.77 -15.7,-0.18 -48.4,-2.21 -62.54,-0.49 z"
         style="display:inline;fill:#e0c693;fill-opacity:1" />
      <path
         id="tagline-path"
         fill="none"
         stroke="#000000"
         stroke-width="1"
         d="m 2048.6783,903.08527 c -2.56,1.79 -5.03,3.26 -7.4,4.41 -2.38,1.15 -4.97,1.96 -7.78,2.43 -3.59,0.59 -6.61,0.58 -9.76,0.09 -3.17,-0.49 -5.74,-1.65 -7.53,-3.46 -2.51,-1.54 -4.97,-3.7 -7.03,-6.59 -2,-2.9 -3.41,-6.54 -4.31,-10.83 -1.69,-8.02 -1.51,-14.67 1.49,-20.29 5.24,-5.88 10.68,-9.27 18.54,-10.61 2.84,-0.47 5.7,-0.54 8.57,-0.19 2.86,0.33 5.53,0.88 7.99,1.65 0,0 1.54,9.23 1.54,9.23 0,0 -0.45,0.08 -0.45,0.08 -2.85,-1.46 -5.72,-2.45 -8.59,-3.01 -2.87,-0.56 -5.6,-0.63 -8.17,-0.2 -4.91,0.82 -8.59,3.11 -10.75,6.72 -2.14,3.62 -2.91,8.48 -1.66,14.48 1.22,5.83 3.35,10.08 6.61,12.72 3.25,2.65 7.16,3.55 11.9,2.77 1.68,-0.28 3.36,-0.78 5.04,-1.48 1.68,-0.72 3.15,-1.52 4.43,-2.43 1.12,-0.79 2.15,-1.6 3.1,-2.43 0.96,-0.83 1.71,-1.55 2.26,-2.13 0,0 0.44,-0.07 0.44,-0.07 0,0 1.52,9.14 1.52,9.14 z m 50.05,-28.9 c 0.81,8.17 -0.58,14.84 -4.26,20.01 -3.62,5.17 -8.72,8.14 -15.08,8.94 -6.63,1.11 -12.59,-0.31 -17.49,-4.31 -4.91,-4.01 -8.04,-10.07 -9.38,-18.17 -1.35,-8.11 -0.36,-14.86 2.98,-20.26 3.34,-5.39 8.52,-8.67 16.11,-9.93 7.87,-1 14.04,0.7 18.8,4.99 4.67,4.31 7.5,10.55 8.32,18.73 z m -8.7,0.91 c -0.68,-6.4 -2.46,-11.02 -5.5,-13.83 -2.92,-2.81 -6.87,-3.92 -11.81,-3.27 -4.95,0.82 -8.21,2.95 -10.19,6.45 -1.99,3.5 -2.46,8.43 -1.41,14.78 1.03,6.14 3.05,10.59 6.1,13.35 3.04,2.76 6.82,3.75 11.05,3.04 4.19,-0.53 7.35,-2.52 9.51,-5.98 2.13,-3.44 2.9,-8.29 2.25,-14.54 z m 64.54,20.57 c 0,0 -8.25,0.28 -8.25,0.28 0,0 -1.02,-28.27 -1.02,-28.27 -0.08,-2.28 -0.3,-4.42 -0.64,-6.41 -0.34,-1.99 -0.89,-3.53 -1.65,-4.64 -0.79,-1.21 -1.95,-2.1 -3.48,-2.65 -1.53,-0.53 -3.37,-0.75 -5.76,-0.64 -2.43,0.14 -4.8,0.84 -7.25,2.12 -2.45,1.28 -4.9,2.87 -7.16,4.78 0,0 2.59,37 2.59,37 0,0 -8.21,0.63 -8.21,0.63 0,0 -4.04,-49.7 -4.04,-49.7 0,0 8.77,-0.67 8.77,-0.67 0,0 0.37,5.26 0.37,5.26 2.63,-2.38 5.4,-4.25 8.15,-5.63 2.74,-1.4 5.7,-2.19 8.91,-2.35 5.77,-0.25 9.96,1.23 12.92,4.39 3.09,3.15 4.75,7.81 4.91,13.95 0,0 0.84,32.55 0.84,32.55 z m 51.46,-14.51 c -0.16,4.57 -2.11,8.26 -5.99,11.07 -3.87,2.81 -8.86,4.15 -15.19,4.06 -3.73,-0.02 -7.13,-0.49 -10.03,-1.37 -3.07,-0.86 -5.52,-1.79 -7.61,-2.8 0,0 -0.13,-9.35 -0.13,-9.35 0,0 0.45,-0.01 0.45,-0.01 2.65,2.04 5.56,3.67 8.77,4.88 3.18,1.24 6.31,1.87 9.32,1.9 3.57,0.04 6.47,-0.53 8.51,-1.74 2.09,-1.19 3.19,-3.12 3.27,-5.81 0.06,-1.97 -0.47,-3.47 -1.56,-4.52 -1.12,-1.05 -3.28,-1.96 -6.51,-2.75 -1.2,-0.29 -2.77,-0.61 -4.7,-0.99 -1.93,-0.37 -3.69,-0.77 -5.28,-1.2 -4.42,-1.18 -7.56,-2.88 -9.47,-5.12 -1.9,-2.23 -2.86,-4.99 -2.91,-8.27 -0.02,-2.06 0.38,-4 1.2,-5.83 0.88,-1.83 2.27,-3.48 4.13,-4.92 1.66,-1.4 3.94,-2.51 6.71,-3.32 2.59,-0.79 5.5,-1.18 8.83,-1.16 3.22,0.06 6.36,0.49 9.63,1.31 3.05,0.81 5.58,1.76 7.6,2.86 0,0 -0.27,8.94 -0.27,8.94 0,0 -0.45,-0.02 -0.45,-0.02 -2.12,-1.72 -4.69,-3.19 -7.74,-4.43 -3.28,-1.23 -6.34,-1.85 -9.53,-1.9 -3.12,-0.03 -5.73,0.57 -7.87,1.8 -2.21,1.22 -3.35,3.05 -3.35,5.5 -0.01,2.06 0.66,3.61 1.99,4.66 1.26,1.06 3.3,1.92 6.12,2.59 1.55,0.38 3.32,0.75 5.3,1.14 1.94,0.39 3.56,0.75 4.87,1.07 3.94,1.01 6.92,2.64 8.99,4.87 2.07,2.28 3.03,5.24 2.9,8.86 z m 36.81,16.43 c -1.62,0.3 -3.28,0.51 -5.04,0.64 -1.87,0.15 -3.54,0.16 -5.01,0.06 -5,-0.37 -8.68,-1.97 -11.02,-4.86 -2.47,-2.89 -3.59,-7.35 -3.27,-13.41 0,0 1.34,-26.58 1.34,-26.58 0,0 -5.75,-0.29 -5.75,-0.29 0,0 0.34,-6.75 0.34,-6.75 0,0 5.75,0.3 5.75,0.3 0,0 0.72,-14.36 0.72,-14.36 0,0 8.96,0.5 8.96,0.5 0,0 -0.89,14.34 -0.89,14.34 0,0 18.09,1.36 18.09,1.36 0,0 -0.57,6.74 -0.57,6.74 0,0 -17.95,-1.35 -17.95,-1.35 0,0 -1.41,22.63 -1.41,22.63 -0.17,2.61 -0.23,4.64 -0.21,6.11 0.03,1.48 0.36,2.88 0.97,4.19 0.56,1.22 1.36,2.16 2.44,2.8 1.11,0.63 2.85,1.03 5.22,1.2 1.37,0.11 2.81,0 4.27,-0.32 1.47,-0.29 2.57,-0.55 3.25,-0.77 0,0 0.44,0.03 0.44,0.03 0,0 -0.67,7.79 -0.67,7.79 z m 45.91,-34.89 c 0,0 -0.44,-0.06 -0.44,-0.06 -1.2,-0.48 -2.4,-0.87 -3.64,-1.18 -1.23,-0.3 -2.67,-0.56 -4.27,-0.78 -2.76,-0.35 -5.4,-0.1 -7.95,0.75 -2.55,0.83 -5.07,2.02 -7.63,3.54 0,0 -3.93,35.06 -3.93,35.06 0,0 -8.13,-0.86 -8.13,-0.86 0,0 4.85,-49.63 4.85,-49.63 0,0 8.83,0.92 8.83,0.92 0,0 -0.82,7.33 -0.82,7.33 3.86,-2.24 7.03,-3.77 9.7,-4.57 2.73,-0.79 5.67,-0.98 8.34,-0.63 1.59,0.22 2.75,0.42 3.45,0.6 0.66,0.17 1.62,0.45 2.9,0.85 0,0 -1.26,8.66 -1.26,8.66 z m 42.08,48.6 c 0,0 -7.91,-1.63 -7.91,-1.63 0,0 1.01,-5.16 1.01,-5.16 -3.16,1.67 -6.17,2.85 -8.95,3.53 -2.7,0.7 -5.48,0.8 -8.48,0.27 -5.06,-0.85 -8.85,-3.13 -11.08,-6.75 -2.35,-3.63 -3.04,-8.52 -2.09,-14.68 0,0 4.94,-32.18 4.94,-32.18 0,0 8.77,1.41 8.77,1.41 0,0 -4.7,27.9 -4.7,27.9 -0.42,2.49 -0.66,4.64 -0.72,6.45 -0.06,1.81 0.19,3.4 0.74,4.79 0.59,1.42 1.46,2.53 2.63,3.33 1.18,0.8 2.9,1.39 5.24,1.81 2.13,0.38 4.48,0.25 7.22,-0.37 2.75,-0.62 5.42,-1.57 7.93,-2.88 0,0 7.14,-36.4 7.14,-36.4 0,0 8.82,1.82 8.82,1.82 0,0 -10.51,48.74 -10.51,48.74 z m 51.84,9.33 c -3.03,0.53 -5.74,0.85 -8.37,0.9 -2.47,0.1 -5.13,-0.21 -7.87,-0.93 -3.5,-0.92 -6.39,-2.21 -9.01,-3.96 -2.54,-1.71 -4.69,-3.89 -6.27,-6.48 -1.64,-2.6 -2.63,-5.64 -3,-9.11 -0.42,-3.47 -0.15,-7.35 0.82,-11.63 1.83,-8 5.56,-13.73 11.13,-17.2 5.49,-3.49 12.17,-4.24 19.68,-2.29 2.78,0.73 5.5,1.87 8.22,3.44 2.51,1.53 4.91,3.23 6.83,4.99 0,0 -2.58,9 -2.58,9 0,0 -0.43,-0.13 -0.43,-0.13 -2.02,-2.56 -4.35,-4.72 -6.77,-6.45 -2.57,-1.75 -5.03,-2.92 -7.57,-3.59 -4.77,-1.26 -8.95,-0.68 -12.57,1.69 -3.49,2.42 -5.92,6.61 -7.34,12.57 -1.39,5.78 -1.13,10.54 0.73,14.27 1.8,3.74 5.04,6.2 9.71,7.43 1.64,0.43 3.39,0.67 5.2,0.71 1.75,0.02 3.37,-0.11 4.91,-0.39 1.34,-0.25 2.57,-0.56 3.76,-0.91 1.2,-0.35 2.18,-0.67 2.92,-0.96 0,0 0.43,0.12 0.43,0.12 0,0 -2.56,8.91 -2.56,8.91 z m 33.82,13.42 c -1.64,-0.1 -3.4,-0.32 -5.21,-0.64 -1.74,-0.28 -3.32,-0.64 -4.72,-1.1 -4.67,-1.47 -7.98,-3.95 -9.71,-7.36 -1.6,-3.36 -1.59,-7.96 0.15,-13.78 0,0 7.65,-25.48 7.65,-25.48 0,0 -5.74,-1.69 -5.74,-1.69 0,0 1.87,-6.5 1.87,-6.5 0,0 5.81,1.71 5.81,1.71 0,0 4.12,-13.76 4.12,-13.76 0,0 8.56,2.64 8.56,2.64 0,0 -4.29,13.71 -4.29,13.71 0,0 17.23,5.6 17.23,5.6 0,0 -2.16,6.41 -2.16,6.41 0,0 -17.08,-5.56 -17.08,-5.56 0,0 -6.76,21.65 -6.76,21.65 -0.78,2.49 -1.34,4.45 -1.66,5.89 -0.32,1.44 -0.33,2.87 -0.01,4.31 0.27,1.33 0.87,2.43 1.8,3.3 0.89,0.86 2.41,1.63 4.66,2.36 1.26,0.41 2.63,0.64 4.15,0.7 1.56,0.09 2.7,0.1 3.42,0.05 0,0 0.42,0.14 0.42,0.14 0,0 -2.5,7.4 -2.5,7.4 z m 37.46,-47.98 c 0,0 -9.35,-3.36 -9.35,-3.36 0,0 2.79,-7.98 2.79,-7.98 0,0 9.44,3.4 9.44,3.4 0,0 -2.88,7.94 -2.88,7.94 z m -20.36,54.65 c 0,0 -7.77,-2.8 -7.77,-2.8 0,0 16.55,-47.04 16.55,-47.04 0,0 8.2,2.96 8.2,2.96 0,0 -16.98,46.88 -16.98,46.88 z m 74.89,-23.24 c 0,0 -38.72,37.46 -38.72,37.46 0,0 -7.7,-3.19 -7.7,-3.19 0,0 -0.38,-53.79 -0.38,-53.79 0,0 8.64,3.35 8.64,3.35 0,0 -0.16,42.77 -0.16,42.77 0,0 29.93,-30.34 29.93,-30.34 0,0 8.39,3.74 8.39,3.74 z m 36.62,47.35 c 0,0 -33.14,-16.82 -33.14,-16.82 -1.26,2.61 -1.93,5.08 -2.03,7.42 -0.09,2.33 0.26,4.46 1.06,6.4 0.81,1.9 2.02,3.62 3.64,5.18 1.62,1.54 3.52,2.85 5.76,3.99 2.97,1.51 6.27,2.48 9.95,2.9 3.67,0.42 6.4,0.37 8.3,-0.06 0,0 0.4,0.21 0.4,0.21 0,0 -4.38,8.17 -4.38,8.17 -3.03,-0.25 -5.96,-0.64 -8.97,-1.29 -3,-0.65 -5.86,-1.69 -8.65,-3.11 -7.26,-3.6 -11.99,-8.42 -14.17,-14.43 -2.24,-5.99 -1.67,-12.75 1.82,-20.23 3.44,-7.38 8.21,-12.31 14.43,-14.69 6.27,-2.3 12.85,-1.74 19.63,1.62 6.42,3.28 10.14,7.49 11.57,12.78 1.55,5.39 0.49,11.31 -3.02,17.84 0,0 -2.2,4.12 -2.2,4.12 z m -4.19,-9.86 c 2.09,-4.06 2.72,-7.72 1.93,-10.95 -0.79,-3.25 -3.4,-6 -7.56,-8.12 -4.19,-2.06 -8.03,-2.42 -11.7,-1.16 -3.76,1.23 -6.61,3.65 -8.7,7.16 0,0 26.03,13.07 26.03,13.07 z m 97.66,26.4 c 0,0 -8.24,-5.58 -8.24,-5.58 0,0 4.71,-7.03 4.71,-7.03 0,0 8.33,5.64 8.33,5.64 0,0 -4.8,6.97 -4.8,6.97 z m -33.49,47.74003 c 0,0 -6.81,-4.61 -6.81,-4.61 0,0 27.79,-41.39003 27.79,-41.39003 0,0 7.28,4.92 7.28,4.92 0,0 -28.26,41.08003 -28.26,41.08003 z m 44.9,33.4 c 0,0 -6.33,-5.04 -6.33,-5.04 0,0 3.08,-3.93 3.08,-3.93 -3.15,0.22 -6.16,-0.03 -8.98,-0.71 -2.76,-0.67 -5.23,-1.81 -7.65,-3.65 -4.68,-3.45 -7.13,-8.14 -7.09,-13.85 -0.11,-5.8 2.22,-12.03 6.96,-18.75 2.48,-3.49 5.19,-6.24 8.16,-8.22 2.99,-1.97 5.98,-3.32 9.13,-3.95 3.12,-0.53 6.07,-0.52 8.97,0.12 2.9,0.64 5.72,1.99 8.12,3.8 2.27,1.73 4.05,3.45 5.32,5.15 1.27,1.68 2.44,3.69 3.61,6.06 0,0 13.55,-17.36 13.55,-17.36 0,0 7.31,5.82 7.31,5.82 0,0 -44.16,54.51 -44.16,54.51 z m 1.35,-14.87 c 0,0 17.72,-22.68 17.72,-22.68 -1.26,-2.26 -2.44,-4.07 -3.63,-5.48 -1.19,-1.41 -2.63,-2.77 -4.44,-4.16 -3.94,-2.98 -8.01,-3.95 -12.1,-2.87 -4.07,1.09 -7.9,4.07 -11.49,8.93 -3.54,4.8 -5.42,9.05 -5.62,12.74 -0.2,3.71 1.5,6.89 4.99,9.51 1.87,1.41 4.04,2.42 6.64,3.09 2.59,0.66 5.24,0.98 7.93,0.92 z m 58.12,35.13 c 0,0 -27.74,-24.74 -27.74,-24.74 -1.88,2.22 -3.15,4.44 -3.84,6.67 -0.67,2.24 -0.85,4.41 -0.55,6.48 0.27,2.01 0.99,3.98 2.12,5.85 1.1,1.89 2.65,3.7 4.58,5.42 2.53,2.25 5.44,3.97 8.85,5.27 3.39,1.34 6.09,2.07 8.04,2.12 0,0 0.33,0.31 0.33,0.31 0,0 -6.31,6.79 -6.31,6.79 -2.91,-1.05 -5.73,-2.29 -8.33,-3.59 -2.71,-1.36 -5.15,-3.01 -7.56,-5.15 -6.09,-5.4 -9.37,-11.18 -10.05,-17.62 -0.63,-6.4 1.68,-12.76 6.95,-19.11 5.2,-6.28 11.15,-9.74 17.74,-10.44 6.51,-0.76 12.8,1.49 18.57,6.57 5.2,4.63 7.92,9.82 8.03,15.42 -0.06,5.46 -2.61,10.9 -7.65,16.33 0,0 -3.18,3.42 -3.18,3.42 z m -1.45,-10.57 c 3.07,-3.38 4.59,-6.78 4.59,-10.17 0,-3.38 -1.81,-6.68 -5.17,-9.67 -3.48,-3.08 -7.22,-4.5 -11.16,-4.28 -3.89,0.31 -7.26,1.92 -10.17,4.8 0,0 21.91,19.32 21.91,19.32 z m 21.19,63.57 c 0,0 -5.61,-5.89 -5.61,-5.89 0,0 3.64,-3.52 3.64,-3.52 -0.88,-0.19 -2.09,-0.4 -3.58,-0.63 -1.5,-0.21 -2.87,-0.57 -4.11,-1.03 -1.48,-0.52 -3.02,-1.27 -4.65,-2.24 -1.61,-0.97 -3.22,-2.27 -4.86,-3.89 -3.16,-3.13 -4.8,-6.82 -4.97,-11.17 -0.16,-4.34 1.42,-8.15 4.65,-11.5 2.66,-2.75 5.38,-4.41 8.19,-4.95 2.82,-0.55 5.78,-0.26 8.9,0.88 3.18,1.22 6.46,3.16 9.92,5.95 3.35,2.71 6.84,5.72 10.55,9.18 0,0 0.96,-0.93 0.96,-0.93 1.39,-1.35 2.32,-2.72 2.77,-4.1 0.45,-1.39 0.45,-2.83 0.03,-4.3 -0.38,-1.4 -1.07,-2.76 -2.08,-4.12 -1,-1.36 -2.15,-2.69 -3.44,-4 -1.63,-1.64 -3.7,-3.29 -6.05,-4.8 -2.46,-1.61 -5.08,-3 -7.94,-4.24 0,0 -0.32,-0.31 -0.32,-0.31 0,0 6.05,-6.22 6.05,-6.22 1.49,0.82 3.54,2.13 6.24,3.99 2.7,1.9 5.18,3.96 7.46,6.26 2.49,2.52 4.44,4.92 5.91,7.24 1.59,2.45 2.47,4.8 2.86,7.22 0.45,2.47 0.18,4.8 -0.74,7.02 -0.92,2.24 -2.55,4.46 -4.91,6.68 0,0 -24.87,23.42 -24.87,23.42 z m 2.95,-14.18 c 0,0 10.26,-9.93 10.26,-9.93 -1.92,-1.77 -4.24,-3.8 -6.92,-6.06 -2.68,-2.27 -4.94,-3.93 -6.81,-4.98 -2.23,-1.21 -4.4,-1.82 -6.53,-1.81 -2.1,0.01 -4.06,0.96 -5.87,2.82 -2.05,2.1 -2.97,4.3 -2.79,6.55 0.16,2.24 1.52,4.62 3.97,7.05 2.07,2.09 4.39,3.6 6.96,4.52 2.56,0.91 5.11,1.49 7.73,1.84 z m 41.51,42.75 c -3.57,2.86 -7.64,3.76 -12.26,2.71 -4.61,-1 -9.02,-4.06 -12.98,-8.77 -2.27,-2.63 -4.15,-5.4 -5.55,-8.3 -1.41,-2.9 -2.32,-5.37 -2.87,-7.51 0,0 6.89,-6.31 6.89,-6.31 0,0 0.31,0.33 0.31,0.33 0.17,3.28 0.89,6.57 2.14,9.83 1.26,3.24 2.77,5.87 4.68,8.1 2.25,2.67 4.54,4.47 6.84,5.29 2.31,0.83 4.49,0.39 6.57,-1.32 1.52,-1.25 2.31,-2.65 2.37,-4.16 0.05,-1.53 -0.67,-3.78 -2.18,-6.74 -0.56,-1.09 -1.36,-2.49 -2.34,-4.19 -0.99,-1.71 -1.86,-3.3 -2.62,-4.77 -2.05,-4.07 -2.84,-7.53 -2.4,-10.43 0.38,-2.94 1.79,-5.52 4.2,-7.74 1.53,-1.39 3.26,-2.36 5.24,-2.89 1.98,-0.52 4.16,-0.51 6.4,-0.16 2.16,0.32 4.41,1.19 6.73,2.58 2.44,1.52 4.88,3.72 7.06,6.25 2.23,2.67 3.88,5.24 5.26,8.08 1.46,2.91 2.46,5.53 3,7.85 0,0 -6.95,5.61 -6.95,5.61 0,0 -0.3,-0.36 -0.3,-0.36 -0.11,-2.76 -0.74,-5.75 -1.85,-8.9 -1.09,-3.11 -2.6,-5.86 -4.78,-8.45 -2.02,-2.35 -4.39,-4.13 -6.8,-4.97 -2.33,-0.78 -4.42,-0.36 -6.24,1.26 -1.55,1.37 -2.29,2.88 -2.2,4.53 0.04,1.64 0.79,3.76 2.24,6.42 0.73,1.42 1.61,3 2.64,4.77 1,1.76 1.77,3.22 2.36,4.4 1.8,3.6 2.55,6.95 2.22,9.97 -0.38,3.06 -1.99,5.72 -4.83,7.99 z m 66.09,46.15 c 0,0 -0.26,-0.39 -0.26,-0.39 -0.48,-1.24 -0.99,-2.37 -1.55,-3.43 -0.55,-1.04 -1.28,-2.24 -2.23,-3.65 -1.54,-2.23 -3.51,-4.06 -5.87,-5.45 -2.33,-1.33 -4.88,-2.4 -7.71,-3.26 0,0 -28.74,20.44 -28.74,20.44 0,0 -4.83,-6.68 -4.83,-6.68 0,0 40.32,-29.34 40.32,-29.34 0,0 5.14,7.12 5.14,7.12 0,0 -6,4.27 -6,4.27 4.19,1.31 7.45,2.64 9.86,4.14 2.49,1.62 4.5,3.55 6.09,5.88 0.82,1.21 1.38,2.11 1.68,2.7 0.31,0.59 0.75,1.48 1.36,2.76 0,0 -7.26,4.89 -7.26,4.89 z m 12.78,52.43 c 0,0 -19.4,-31.73 -19.4,-31.73 -2.42,1.58 -4.29,3.34 -5.59,5.28 -1.32,1.93 -2.11,3.96 -2.43,6.03 -0.33,2 -0.21,4.11 0.35,6.27 0.57,2.17 1.5,4.29 2.82,6.44 1.72,2.83 4.06,5.44 6.96,7.67 2.87,2.25 5.21,3.67 7.06,4.29 0,0 0.22,0.39 0.22,0.39 0,0 -8.02,4.64 -8.02,4.64 -2.45,-1.82 -4.74,-3.72 -6.88,-5.74 -2.21,-2.08 -4.16,-4.54 -5.78,-7.2 -4.28,-6.89 -5.78,-13.44 -4.49,-19.68 1.2,-6.36 5.27,-11.78 12.15,-16.32 6.8,-4.49 13.49,-6.1 19.95,-4.96 6.58,1.36 11.91,5.29 15.93,11.72 3.67,6.05 4.71,11.66 3.19,17.04 -1.54,5.35 -5.58,9.82 -11.99,13.53 0,0 -4.05,2.33 -4.05,2.33 z m 1.65,-10.59 c 3.91,-2.36 6.35,-5.16 7.32,-8.4 1.01,-3.19 0.34,-6.75 -2.13,-10.77 -2.49,-3.98 -5.57,-6.3 -9.41,-7.23 -3.8,-0.84 -7.53,-0.32 -11.15,1.59 0,0 15.37,24.81 15.37,24.81 z m 1.56,66.95 c 0,0 -3.57,-7.22 -3.57,-7.22 0,0 4.52,-2.29 4.52,-2.29 -0.8,-0.44 -1.89,-1.02 -3.28,-1.74 -1.39,-0.73 -2.59,-1.48 -3.59,-2.25 -1.22,-0.87 -2.47,-2.02 -3.68,-3.34 -1.22,-1.32 -2.43,-3.1 -3.58,-5.27 -2.05,-3.82 -2.49,-7.77 -1.37,-11.95 1.1,-4.2 3.71,-7.4 7.77,-9.67 3.34,-1.86 6.43,-2.67 9.28,-2.37 2.85,0.29 5.61,1.43 8.28,3.47 2.68,2.09 5.26,4.97 7.68,8.54 2.47,3.67 4.95,7.7 7.38,11.98 0,0 1.19,-0.6 1.19,-0.6 1.73,-0.87 3.02,-1.91 3.86,-3.09 0.85,-1.17 1.31,-2.49 1.4,-3.95 0.08,-1.39 -0.19,-2.97 -0.8,-4.67 -0.56,-1.62 -1.31,-3.34 -2.21,-5.04 -1.04,-1.96 -2.46,-4.01 -4.31,-6.26 -1.85,-2.21 -4.02,-4.44 -6.4,-6.47 0,0 -0.22,-0.39 -0.22,-0.39 0,0 7.59,-4.2 7.59,-4.2 1.19,1.21 2.82,3.13 4.88,5.78 2.07,2.69 3.78,5.34 5.2,8.02 1.77,3.37 3,6.39 3.72,9.13 0.66,2.6 0.8,5.08 0.48,7.55 -0.36,2.41 -1.31,4.53 -2.82,6.44 -1.51,1.9 -3.73,3.56 -6.64,4.97 0,0 -30.76,14.89 -30.76,14.89 z m 7.07,-12.61 c 0,0 12.74,-6.44 12.74,-6.44 -1.31,-2.24 -2.88,-4.85 -4.77,-7.86 -1.91,-2.99 -3.6,-5.23 -5.06,-6.75 -1.77,-1.82 -3.67,-3.05 -5.7,-3.68 -2.01,-0.6 -4.16,-0.27 -6.43,0.98 -2.58,1.41 -4.12,3.22 -4.62,5.41 -0.49,2.21 0.07,4.82 1.74,7.98 1.37,2.59 3.11,4.64 5.25,6.23 2.14,1.61 4.43,3.01 6.85,4.13 z m 3.05,34.2 c 0,0 -3.43,-7.52 -3.43,-7.52 0,0 63.72,-29.32 63.72,-29.32 0,0 3.71,8.1 3.71,8.1 0,0 -64,28.74 -64,28.74 z m 63.89,1.06 c 0,0 -3.82,-9.21 -3.82,-9.21 0,0 7.78,-3.3 7.78,-3.3 0,0 3.85,9.3 3.85,9.3 0,0 -7.81,3.21 -7.81,3.21 z m -54.16,21.63 c 0,0 -3.15,-7.59 -3.15,-7.59 0,0 45.92,-19.45 45.92,-19.45 0,0 3.36,8.12 3.36,8.12 0,0 -46.13,18.92 -46.13,18.92 z m 18.22,48.8 c 0,0 -13.64,-37.4 -13.64,-37.4 0,0 5.52,-2.14 5.52,-2.14 0,0 45.1,14.6 45.1,14.6 0,0 -10.19,-27.42 -10.19,-27.42 0,0 6.31,-2.43 6.31,-2.43 0,0 13.83,37.94 13.83,37.94 0,0 -5.6,1.9 -5.6,1.9 0,0 -44.96,-15.26 -44.96,-15.26 0,0 10.02,28.01 10.02,28.01 0,0 -6.39,2.2 -6.39,2.2 z m 37.72,43.17 c 0,0 -10.31,-35.53 -10.31,-35.53 -2.8,0.74 -5.12,1.83 -6.96,3.28 -1.84,1.45 -3.22,3.15 -4.03,5.42 -0.64,2.25 -0.98,4.35 -0.9,6.59 0.07,2.25 0.46,4.36 0.96,6.05 0.87,3.28 2.39,6.45 4.56,9.45 2.18,3 4.07,5.06 5.69,6.16 0,0 0.12,0.43 0.12,0.43 0,0 -8.97,2.37 -8.97,2.37 -1.89,-2.45 -3.61,-5 -5.16,-7.66 -1.55,-2.66 -2.74,-5.57 -3.58,-8.72 -2.13,-6.31 -2.47,-14.68 0.66,-20.35 3.26,-5.07 8.53,-9.14 16.27,-12.01 7.65,-2.82 14.69,-2.39 20.88,1.88 5.77,3.1 9.12,5.74 11.87,13.58 2.18,7.98 1.56,13.55 -1.4,18.13 -2.96,4.59 -8.01,7.83 -15.18,9.73 0,0 -4.52,1.2 -4.52,1.2 z m 4.44,-9.69 c 4.4,-1.19 7.54,-3.18 9.39,-5.96 1.86,-2.77 2.21,-6.33 0.59,-12.04 -1.67,-4.75 -4.17,-7.69 -7.27,-8.27 -3.2,-1.4 -6.89,-2 -10.92,-1.3 0,0 8.21,27.57 8.21,27.57 z m -15.93,66.7 c 0,0 -1.6,-8.45 -1.6,-8.45 0,0 4.91,-0.9 4.91,-0.9 -2.51,-2.01 -4.59,-4.2 -6.17,-6.27 -1.64,-2.04 -2.82,-4.71 -3.48,-7.74 -1.27,-5.86 0.05,-10.74 3.8,-14.74 3.58,-4.59 9.35,-7.93 17.3,-10.04 4.13,-1.1 7.97,-1.48 11.5,-1.16 3.55,0.32 6.72,1.17 9.55,2.66 2.87,2.11 5.16,4.43 6.92,6.83 1.75,2.4 2.94,5.02 3.56,7.87 0.55,2.56 0.81,5.1 0.77,7.76 -0.14,2.28 -0.6,4.56 -1.34,6.98 0,0 21.66,-4.01 21.66,-4.01 0,0 1.51,7.94 1.51,7.94 0,0 -68.89,13.27 -68.89,13.27 z m 10.66,-10.71 c 0,0 28.31,-5.24 28.31,-5.24 0.58,-2.44 0.9,-4.57 0.94,-6.49 -0.03,-2.2 -0.31,-4.42 -0.76,-6.49 -1,-4.64 -3.4,-7.9 -7.17,-9.78 -3.78,-1.88 -8.66,-2.33 -14.55,-0.96 -5.81,1.35 -10.01,3.29 -12.62,5.93 -2.59,2.65 -3.41,6.17 -2.46,10.57 0.51,2.35 1.54,4.61 3.03,6.56 1.47,2.1 3.24,4.1 5.28,5.9 z"
         style="display:inline;fill:#575051;fill-opacity:1" />
      <path
         id="small letters HL sub"
         fill="none"
         stroke="#000000"
         stroke-width="1"
         d="m 2244.5783,1508.4953 c 0,0 -23.67,20.92 -35.29,25.78 -11.62,4.86 -32.32,10.56 -42.68,2.32 -10.35,-8.24 -9.93,-33.59 -7.39,-47.33 2.53,-13.73 13.52,-48.59 21.34,-59.58 7.82,-10.99 30.64,-43.11 40.57,-52.61 9.93,-9.51 21.13,-16.91 30.85,-15.43 9.71,1.48 13.52,7.4 19.65,17.96 6.12,10.57 5.7,13.95 6.76,19.23 1.05,5.28 -4.02,15.42 -6.55,25.14 -2.54,9.72 -7.82,28.74 -10.57,40.36 -2.74,11.62 -6.34,23.67 -8.03,29.37 -1.69,5.71 -1.75,6.9 -3.44,9.22 -1.69,2.33 -5.22,5.57 -5.22,5.57 z m 359.2,-109.73 c -1.46,2.1 -12.11,12.68 -20.01,11.83 -7.88,-0.84 -13.8,-3.38 -12.39,-18.31 1.41,-14.93 10.68,-23.51 14.08,-26.2 3.41,-2.69 9.64,-4.61 11.63,-2.46 2,2.15 8.85,10.91 9,14.98 0.15,4.08 0.69,8.84 0.38,11.76 -0.31,2.92 -1.23,6.3 -2.69,8.4 z m -63.39,-5.91 c 1.47,0.16 0.47,11.88 4.53,21.78 3.78,9.22 10.68,16.21 16.81,18.85 6.13,2.65 12.42,4.05 18.91,3.49 5.76,-0.5 12.79,-2.79 17.22,-4.4 4.44,-1.62 4.23,3.56 3.66,7.04 -0.55,3.48 -4.96,21.94 -6.94,29.26 -1.05,3.93 -6.28,21.53 -15.21,36.87 -7.72,13.27 -18.85,24.85 -22.64,28.25 -8.17,7.32 -20,16.34 -29.29,16.9 -9.3,0.56 -17.75,-3.1 -20.86,-11.83 -3.1,-8.74 -4.5,-52.97 -2.53,-63.39 1.97,-10.43 8.45,-40.57 11.55,-46.2 3.1,-5.64 8.45,-18.6 12.39,-23.1 3.95,-4.51 9.56,-13.86 12.4,-13.52 z m 102.69,518.37 c 2.54,3.38 61.7,-43.32 66.77,-52.61 5.07,-9.3 6.55,-43.74 1.48,-49.66 -5.07,-5.91 -14.58,1.69 -18.6,4.23 -4.01,2.53 -28.1,25.99 -35.92,44.58 -7.81,18.59 -16.26,50.08 -13.73,53.46 z"
         style="display:inline;fill:#e0c693;fill-opacity:1" />
      <path
         id="small letters HL"
         fill="none"
         stroke="#000000"
         stroke-width="1"
         d="m 1778.0383,1335.6553 c 0,0 -20.28,142.84 -19.44,170.31 0.85,27.46 7.04,39.3 25.64,47.47 18.59,8.16 29.58,2.53 34.09,-0.29 4.51,-2.81 36.9,-27.04 36.9,-27.04 0,0 -2.81,-10.42 -7.88,-13.59 -5.07,-3.17 -7.61,-1.27 -12.68,1.69 -5.07,2.95 -20.5,14.58 -25.14,16.48 -4.65,1.9 -6.06,2.4 -11.2,2.11 -5.15,-0.29 -8.07,-1.21 -10.84,-5.05 -2.76,-3.84 -0.15,-39.03 0.31,-46.25 0.46,-7.23 3.22,-41.19 4.31,-50.1 1.07,-8.91 9.58,-60.81 10.75,-72.99 1.17,-12.18 3.92,-37.75 7.72,-45.78 3.81,-8.03 18.27,-18.8 28.1,-30.85 9.83,-12.04 24.51,-21.97 32.75,-25.99 8.24,-4.01 30.01,-15.84 36.35,-18.38 6.34,-2.53 23.03,-5.28 32.33,-5.07 9.29,0.21 5.05,-23.45 5.05,-23.45 0,0 -28.43,-3.08 -40.72,2.91 -5.94,2.9 -17.65,7.86 -27.98,13.99 -11.06,6.57 -20.69,14.33 -24.42,17.82 -7.23,6.77 -16.15,18.29 -23.36,17.68 -7.23,-0.62 3.99,-24.13 6.76,-28.89 2.76,-4.77 7.68,-26.59 10.44,-35.04 2.78,-8.45 8.15,-23.97 12.92,-34.88 4.76,-10.91 7.99,-17.36 7.22,-22.59 -0.77,-5.23 -2.61,-8.91 -8.45,-8.46 -5.85,0.47 -6.61,4.15 -13.98,8.15 -7.38,4 -16.45,8.3 -19.68,10.76 -3.23,2.46 1.23,5.38 2.31,7.84 1.07,2.45 -2.31,11.52 -4.15,16.28 -1.84,4.77 -12.97,38.86 -15.71,48.58 -2.75,9.72 -9.51,38.04 -10.36,43.53 -0.84,5.49 -7.6,28.1 -9.51,32.54 -1.9,4.44 -9.08,7.18 -14.79,8.45 -5.7,1.27 -18.02,-0.48 -21.4,-3.25 -3.38,-2.76 -4.45,-3.84 -8.3,-2.68 -3.83,1.15 -9.52,10.83 -11.52,14.44 -2,3.61 -3.22,9.99 -3,13.21 0.23,3.23 8,7.15 12.06,8.22 4.08,1.08 19.53,0.7 24.68,-0.22 5.14,-0.92 10.67,-3.38 12.44,-4.15 1.76,-0.77 1.38,2.53 1.38,2.53 z m 158.47,18.81 c 0.65,-1.56 37.61,-22.4 48.39,-23.88 10.78,-1.48 4.01,6.13 3.17,9.3 -0.85,3.17 -27.68,83.25 -31.27,96.35 -1.9,6.91 -7.81,26.39 -10.99,44.16 -2.84,15.9 -3.12,30.35 -2.32,34.44 0.88,4.53 2.66,11.6 6.97,16.69 3.94,4.65 10.24,7.52 14.58,7.82 9.08,0.63 32.96,-7.4 40.78,-12.25 7.82,-4.86 24.93,-15.01 27.89,-18.39 1.66,-1.9 4.52,-18.95 8.45,-35.28 3.06,-12.72 7.34,-25.13 8.45,-28.74 2.54,-8.24 22.19,-72.47 25.36,-77.33 3.17,-4.86 -4.02,-12.47 -4.02,-17.75 0,-5.28 10.57,-7.19 17.12,-8.67 6.55,-1.47 16.9,-10.56 23.87,-9.29 6.98,1.27 1.69,11.83 0.64,15.63 -1.06,3.81 -21.77,50.5 -25.99,61.28 -4.23,10.77 -18.17,61.7 -19.86,69.09 -1.69,7.4 -7.82,33.6 -5.92,39.3 1.05,3.16 1.68,6.11 4.02,7.09 1.89,0.78 5.33,-0.06 7.6,-0.54 5.07,-1.05 8.03,-2.96 11.2,0.21 3.17,3.17 6.13,8.46 6.13,12.47 0,4.02 -21.13,17.75 -26.2,20.07 -5.07,2.33 -13.53,4.02 -18.39,0.43 -4.86,-3.6 -12.67,-24.3 -12.88,-28.74 -0.22,-4.44 -4.65,-3.17 -5.92,-1.69 -0.6,0.7 -9.52,9.2 -21.76,16.06 -13.54,7.58 -30.67,13.6 -34.66,14.15 -3.74,0.53 -18.32,1.52 -29.37,-1.47 -11.37,-3.09 -19.19,-10.21 -21.34,-13.32 -1.89,-2.73 -6.87,-7.84 -8.24,-17.11 -1.69,-11.46 0.53,-27.44 1.69,-31.06 2.12,-6.55 9.09,-50.71 11.41,-59.37 2.33,-8.67 12.47,-50.5 13.95,-56.21 1.48,-5.7 2.53,-10.77 1.9,-15 -0.63,-4.23 -5.09,-6.9 -4.44,-8.45 z m 195.24,137.97 c 0.04,-9.64 0.73,-16.48 1.81,-27.24 0.53,-5.36 3.61,-21.3 10.44,-37.98 6.88,-16.76 17.52,-34.28 22.82,-41.69 6.38,-8.93 19.94,-25.79 35.5,-36.62 10.24,-7.14 21.97,-10.38 30.85,-11.56 22.4,-2.96 21.99,0.41 35.33,2.08 13.33,1.67 23.15,18.84 25,15 1.84,-3.85 15.31,-46.66 19.96,-59.76 4.65,-13.1 33.81,-91.28 37.61,-98.46 3.81,-7.19 11.14,-14.99 13.14,-17.75 2,-2.76 -1.23,-15.68 0,-16.9 1.23,-1.23 7.22,-3.38 12.29,-3.38 5.07,0 24.74,-11.22 29.04,-11.69 4.31,-0.45 6.16,2.93 5.69,6.31 -0.45,3.38 -21.03,31.11 -25.66,39.8 -4.64,8.68 -21.33,43.48 -29.05,64.54 -7.7,21.05 -18.35,49.19 -26.27,71.61 -7.91,22.4 -20.87,60.44 -25.94,78.75 -5.07,18.32 -26.49,106.22 -27.05,114.67 -0.56,8.45 0.07,10 2.18,10.84 2.12,0.85 6.34,-0.84 11.1,-4.97 4.75,-4.11 9.72,-9.72 14.05,-10.24 4.32,-0.53 10.56,2.74 11.31,6.34 0.73,3.59 -8.57,18.8 -12.48,23.24 -2.03,2.31 -7.23,11.45 -15.74,13.87 -7.86,2.23 -19,-2.05 -22.6,-4.79 -3.17,-2.4 -8.97,-7.48 -11.82,-14.57 -3.9,-9.7 -4.44,-21.75 -4.98,-23.04 -0.95,-2.22 -4.65,2.23 -8.87,6.55 -2.36,2.42 -13.19,14.68 -26.87,22.94 -10.85,6.55 -24.24,9.73 -31.35,9.6 -7.29,-0.12 -17.1,-1.85 -24.28,-6.83 -8.62,-6 -14.21,-15.81 -17.13,-21.34 -5.35,-10.14 -8.07,-27.68 -8.03,-37.33 z m 293.98,31.7 c 0.71,1.37 -16.06,25.92 -25.92,31.55 -9.86,5.63 -25.64,9.02 -34.09,0.84 -8.45,-8.16 -9.01,-30.7 -6.48,-44.79 2.54,-14.08 20,-67.62 23.95,-78.04 3.95,-10.42 18.31,-40.57 25.08,-54.37 6.76,-13.81 9.57,-12.96 12.67,-21.69 3.1,-8.73 -1.97,-6.2 0.56,-9.3 2.54,-3.1 30,-10.52 36.44,-9.45 6.46,1.07 5.24,4.15 2.93,7.99 -2.31,3.84 -18.9,25.2 -22.59,30.27 -3.69,5.07 -22.55,38.8 -28.05,52.75 -5.49,13.95 -15.63,52.19 -16.9,58.53 -1.27,6.34 -4.86,25.56 -5.28,31.06 -0.42,5.49 5.91,8.03 10.14,5.91 4.23,-2.11 13.19,-11.31 14.88,-11.73 1.69,-0.43 6.11,3.74 6.99,4.55 0.88,0.81 4.97,4.55 5.67,5.92 z m 29.76,-229.66 c -3.22,-0.92 -6.92,-5.84 -3.38,-15.52 3.54,-9.69 7.22,-25.36 11.84,-31.97 4.6,-6.6 8.29,-10.14 13.97,-9.37 5.69,0.77 9.07,-0.46 10.61,7.38 1.53,7.84 -3.38,19.36 -6.92,24.74 -3.53,5.37 -12.44,19.67 -17.06,22.13 -4.6,2.45 -5.84,3.53 -9.06,2.61 z m 28.27,251.21 c -1.84,-3.2 -7.58,-16.41 -8.87,-34.86 -1.53,-21.85 1.71,-49.88 4.23,-60.65 2.51,-10.76 9.41,-29.81 18.8,-47.11 7.94,-14.63 18.11,-28.02 24.3,-34.02 7.51,-7.28 20.62,-16.85 34.86,-23.88 11.41,-5.63 24.11,-9.56 31.06,-9.93 15.64,-0.85 32.12,8.87 38.04,20.71 5.91,11.83 3.9,13.52 5.49,15.84 1.59,2.33 4.33,1.48 7.4,-0.31 3.06,-1.8 23.66,-15.74 27.46,-18.7 3.81,-2.96 19.02,-12.05 25.78,-11.41 6.76,0.63 6.13,5.28 6.34,7.39 0.21,2.12 -10.99,25.57 -13.52,29.16 -2.54,3.59 -10.14,4.86 -17.12,6.13 -6.97,1.27 -33.17,20.28 -36.13,24.72 -2.96,4.44 -0.21,22.4 -3.17,34.65 -2.96,12.26 -16.48,41.84 -23.66,54.94 -7.19,13.1 -28.95,39.09 -39.73,46.27 -10.77,7.19 -24.08,18.6 -36.13,18.81 -12.04,0.21 -26.41,-2.12 -31.9,-5.71 -5.5,-3.59 -9.51,-5.07 -13.53,-12.04 z m -156.63,459.07 c -9.13,-0.53 -17.91,-3.69 -21.42,-6.76 -2.62,-2.3 -9.03,-7.66 -10.7,-18.31 -2.64,-16.8 0.6,-42.04 4.23,-53.25 5.91,-18.31 26.2,-80.01 31.27,-94.66 5.07,-14.65 7.32,-16.62 3.66,-23.66 -3.66,-7.04 -2.54,-7.04 -0.85,-8.46 1.69,-1.41 21.98,-5.91 30.43,-6.48 8.45,-0.56 10.23,-0.65 12.2,2.73 1.97,3.38 0.49,5.57 -0.63,7.82 -1.13,2.26 -6.78,11.15 -9.88,17.06 -3.1,5.92 -23.94,52.41 -26.2,59.17 -2.26,6.76 -18.32,68.73 -18.87,74.65 -0.57,5.92 1.4,16.63 7.6,17.19 6.2,0.56 15.5,0.85 20.85,-3.38 5.35,-4.22 7.6,-7.05 10.98,-7.05 3.38,0 9.59,7.9 10.71,12.4 1.13,4.51 -3.66,9.58 -6.76,13.25 -3.1,3.65 -8.45,11.26 -15.78,14.64 -3.52,1.63 -12.36,3.59 -20.84,3.1 z m 29.01,-238.06 c -3.15,-0.23 -8.66,-4.01 -7.39,-10.98 1.27,-6.98 6.76,-32.33 10.14,-37.19 3.38,-4.86 13.52,-10.78 19.23,-11.62 5.7,-0.85 7.45,2.47 7.98,5.85 0.55,3.38 -1.91,13.92 -3.22,17.83 -1.31,3.92 -6.83,14.29 -8.91,18.74 -2.07,4.47 -7.84,11.38 -9.84,13.69 -1.99,2.3 -4.83,3.91 -7.99,3.68 z m 82.41,237.29 c -4.23,1.05 -7.82,1.05 -13.52,0.42 -1.55,-0.17 -6.34,2.75 -6.34,-5.07 0,-7.82 0.06,-30.07 0.21,-34.23 0.21,-5.71 13.1,-77.97 20.07,-96.35 6.97,-18.38 4.44,-44.16 2.96,-52.61 -1.48,-8.46 2.53,-10.36 7.82,-13.74 5.28,-3.38 18.38,-9.93 27.04,-9.93 8.67,0 7.4,2.32 4.86,8.88 -2.53,6.55 -14.15,60.85 -14.37,65.07 -0.21,4.23 2.54,3.6 5.71,-0.42 3.17,-4.01 25.14,-35.07 40.57,-47.96 15.42,-12.89 44.16,-27.68 53.03,-28.74 4.53,-0.54 15.86,-1.33 23.46,0.64 7.26,1.88 10.89,6.43 11.62,10.56 1.48,8.45 -12.89,49.87 -16.27,57.89 -3.38,8.03 -21.13,60.86 -24.51,72.27 -3.38,11.41 -8.67,27.68 -8.24,35.07 0.42,7.4 2.53,6.13 7.18,5.92 4.65,-0.21 8.53,-5.88 11.83,-5.92 3.31,-0.04 12.53,12.95 12.6,14.94 0.08,2.01 -30.13,21.62 -36.05,23.94 -5.92,2.32 -13.73,2.96 -16.27,1.27 -1.38,-0.92 -6.3,-3.48 -8.45,-7.4 -1.81,-3.29 -1.04,-7.72 -0.85,-11.2 0.21,-3.74 2.03,-20.25 6.13,-36.55 4.23,-16.82 10.76,-33.44 12.04,-37.19 2.54,-7.39 19.65,-63.39 19.65,-70.36 0,-6.97 1.91,-16.06 -4.64,-16.27 -6.55,-0.21 -30.85,8.88 -36.14,14.58 -5.28,5.71 -55.99,64.23 -61.06,71.63 -5.07,7.4 -8.45,41.84 -8.87,52.19 -0.43,10.35 0.42,29.37 -1.91,34.44 -2.32,5.07 -5.07,3.17 -9.29,4.23 z m 205.52,-30.5 c -3.58,-6.9 -4.58,-33.31 -3.63,-44.41 0.35,-1.06 0.64,-4.62 1.16,-5.28 8.24,-6.13 66.14,-36.52 75.71,-41.87 9.59,-5.35 15.22,-7.89 17.47,-11.27 2.26,-3.38 5.64,-58.88 3.66,-67.61 -1.97,-8.74 -9.57,-16.63 -15.49,-19.16 -5.92,-2.54 -21.34,-2.46 -37.19,5.07 -15.85,7.54 -34.72,29.72 -44.51,44.51 -9.79,14.79 -21.62,42.26 -25.64,62.54 -4.01,20.29 -7.33,56.91 -5.07,67.62 2.26,10.71 7.61,28.74 16.06,36.06 8.45,7.32 25.08,11.55 36.34,11.55 11.27,0 30.15,-2.54 37.76,-8.17 7.6,-5.63 19.44,-16.62 20.56,-20.57 1.12,-3.94 -5.92,-11.83 -10.71,-14.64 -4.78,-2.82 -9.85,8.45 -15.77,12.39 -5.92,3.94 -23.39,8.46 -30.99,7.32 -7.61,-1.12 -15.78,-6.47 -19.72,-14.08 z m 150.15,-167.06 c -2.71,-2.69 -0.84,-7.04 3.38,-10.99 4.23,-3.95 32.97,-17.18 37.76,-14.65 4.79,2.54 -6.48,42.82 -2.26,46.77 4.23,3.94 38.88,-32.12 65.93,-36.63 27.04,-4.51 30.99,-0.28 38.87,5.08 7.9,5.35 -6.19,17.18 -10.14,20.56 -3.94,3.38 -13.8,1.69 -18.31,1.12 -4.51,-0.56 -14.36,-4.78 -24.79,2.26 -10.42,7.04 -47.61,29.01 -53.53,40.57 -5.91,11.55 -15.21,65.36 -17.47,78.32 -2.25,12.96 -0.84,44.23 -6.76,60.57 -5.92,16.34 -5.92,10.42 -9.3,10.7 -3.38,0.28 -19.43,0.85 -23.09,-4.5 -3.66,-5.36 1.69,-19.73 3.1,-26.77 1.4,-7.04 12.67,-90.43 14.64,-109.87 1.97,-19.44 6.2,-41.69 7.04,-47.9 0.85,-6.19 -2.35,-11.96 -5.07,-14.64 z"
         style="display:inline;fill:#dadae3;fill-opacity:1" />
      <path
         id="Initials HL"
         fill="none"
         stroke="#000000"
         stroke-width="1"
         d="m 1265.9783,1238.2253 c 0.95,-20.05 7.28,-38.12 10.56,-49.02 6.76,-22.4 11.29,-46.79 39.73,-83.25 26.88,-34.49 70.99,-58.74 70.99,-58.74 0,0 30.31,-18.59 52.82,-25.36 40.68,-12.23 75.11,-15.9 85.1,-15.75 9.99,0.16 57.56,4.02 80.14,9.41 38.48,9.19 50.71,21.56 50.71,21.56 0,0 31.63,21.95 51.13,46.9 19.79,25.33 27.47,53.67 27.47,53.67 0,0 9.52,28.95 10.56,54.09 1.07,25.57 -6.34,47.33 -6.34,47.33 0,0 -10.19,21.09 -22.39,39.3 -14.26,21.28 -30.85,40.15 -30.85,40.15 0,0 -21.6,18.41 -42.68,29.16 -22,11.21 -43.53,14.79 -43.53,14.79 0,0 -27.13,2.78 -52.82,-4.65 -25.44,-7.36 -49.45,-24.93 -49.45,-24.93 0,0 -13,-9.7 -20.7,-22.4 -7.94,-13.07 -13.95,-28.59 -13.95,-28.59 0,0 -5.69,-14.02 -8.45,-30.57 -3.49,-20.96 -0.84,-46.06 -0.84,-46.06 0,0 0.22,-18.62 6.33,-34.23 5.24,-13.37 16.48,-24.09 16.48,-24.09 0,0 12.62,-12.78 26.21,-21.98 13.88,-9.39 28.73,-15.21 28.73,-15.21 0,0 20.6,-6.4 37.61,-4.22 19.2,2.46 35.08,13.52 35.08,13.52 0,0 12.13,10.73 17.32,21.97 4.96,10.73 2.96,21.98 2.96,21.98 0,0 -0.11,10.83 -3.8,20.28 -3.91,9.98 -11.41,18.6 -11.41,18.6 0,0 -10.08,3.99 -18.17,4.22 -6.53,0.19 -11.41,-3.38 -11.41,-3.38 0,0 -8.92,-2.6 -12.89,-8.55 -2.54,-5.82 -2.33,-14.27 -2.33,-14.27 0,0 3.85,-7.61 8.45,-7.82 5.09,-0.22 9.4,8.24 9.4,8.24 0,0 1.36,2.21 3.28,3.06 1.68,0.76 3.95,0.18 3.95,0.18 0,0 4.59,-0.81 6.72,-3.76 2.24,-3.1 2.01,-8.35 2.01,-8.35 0,0 1.27,-11.83 -1.12,-17.18 -2.4,-5.36 -6.81,-9.97 -9.02,-12.4 -2.22,-2.44 -11.83,-6.2 -21.41,-5.92 -4.67,0.14 -17.22,5.56 -26.98,13.1 -10.29,7.96 -17.75,18.17 -20.35,23.81 -5.07,10.99 -9.58,29.86 -9.3,43.1 0.15,6.94 1.02,16.87 4.72,27.54 3.35,9.69 9.4,20.2 12.74,25.42 4.14,6.44 9.39,17.56 17.69,26.98 5.86,6.66 14.03,11.98 20.91,16.42 3.76,2.41 6.51,3.59 13.53,5.27 5.95,1.43 14.25,3.8 20.75,3.23 8.88,-0.81 18,-5.33 25.5,-8.15 9.11,-3.43 16.91,-5.22 20.52,-7.68 3.6,-2.46 24.23,-22.35 36.34,-39.94 10.39,-15.1 13.93,-29.21 15.49,-34.16 1.88,-5.96 2.46,-27.72 0.14,-49.09 -1.84,-16.99 -6.03,-33.54 -9.15,-43.03 -7.05,-21.41 -43.25,-61.35 -53.53,-71.28 -5.09,-4.92 -21.34,-15.12 -42.39,-22.66 -21.43,-7.7 -47.77,-12.69 -62.41,-12.83 -12.47,-0.12 -29.73,1.47 -44.85,6.06 -20.06,6.11 -37.31,16.21 -43.9,21.83 -11.54,9.86 -16.97,12.23 -31.76,26.41 -15.61,14.97 -29.09,31.9 -29.09,31.9 0,0 -13.18,18.19 -24.37,36.98 -10.92,18.32 -19.86,37.26 -19.86,37.4 0,0.14 -7.76,21.26 -10.99,42.05 -3.1,19.97 -1.69,39.65 -1.69,39.65 0,0 -0.03,16.32 3.38,31.76 3.56,16.1 10.57,31.34 10.71,31.34 0.14,0 7.3,22.87 17.82,44.1 11.48,23.15 26.41,44.81 26.41,44.37 0,-0.46 22.97,23.29 46.48,43.31 20.19,17.19 41.42,31.06 41.42,31.06 0,0 94.66,64.24 94.66,64.24 0,0 62.96,59.16 78.6,78.6 15.64,19.44 25.78,40.99 38.03,62.54 12.26,21.55 30.43,69.31 38.88,93.82 8.45,24.51 10.14,72.68 10.14,103.95 0,31.27 -12.11,47.33 -20.28,67.62 -8.17,20.28 -29.86,58.31 -54.94,89.59 -25.07,31.27 -46.2,50.43 -65.92,65.07 -19.72,14.65 -72.69,29.86 -96.35,35.5 -23.67,5.64 -41.98,5.07 -78.6,5.07 -36.62,0 -74.38,-9.01 -97.2,-18.59 -22.82,-9.58 -57.19,-30.43 -80.01,-47.61 -22.82,-17.19 -39.72,-43.95 -55.78,-63.68 -16.06,-19.71 -34.37,-56.33 -43.39,-82.26 -9.01,-25.92 -11.83,-76.63 -11.83,-94.66 0,-18.02 9.58,-50.14 17.75,-69.3 8.17,-19.16 9.3,-21.41 20.28,-38.88 10.99,-17.47 19.16,-22.82 27.05,-32.12 7.89,-9.29 11.83,-13.8 26.2,-23.66 14.37,-9.86 22.25,-15.49 43.1,-27.05 20.86,-11.55 23.67,-9.57 36.35,-11.83 12.68,-2.26 42.54,-1.41 51.55,-0.84 9.02,0.56 31.55,7.32 46.49,11.83 14.93,4.5 21.69,10.42 35.92,17.75 14.22,7.32 15.63,9.29 24.09,16.9 8.45,7.61 15.49,20.01 21.55,28.31 6.06,8.31 11.13,16.49 15.63,26.2 4.51,9.72 8.73,19.59 10.99,30.43 2.26,10.84 7.04,26.9 8.03,38.46 0.99,11.55 -0.42,32.11 -1.27,46.48 -0.84,14.37 -1.12,21.41 -3.8,33.39 -2.68,11.97 -14.23,37.61 -20.71,49.86 -6.48,12.26 -13.76,19.38 -22.82,28.54 -9.06,9.16 -10.52,12.3 -17.4,17.52 -6.88,5.23 -17.71,13.89 -31.69,20.71 -14,6.82 -17.96,6.91 -33.74,7.61 -15.77,0.7 -23.66,-1.84 -35.07,-3.81 -11.41,-1.97 -17.89,-4.22 -26.2,-10.56 -8.31,-6.34 -11.13,-7.75 -19.02,-19.44 -7.88,-11.69 -7.32,-14.51 -12.67,-28.31 -5.35,-13.81 -5.08,-20.57 -6.77,-34.66 -1.69,-14.08 -0.27,-16.9 0.85,-27.46 1.12,-10.57 1.97,-14.23 5.07,-22.4 3.1,-8.17 4.79,-16.06 8.45,-21.98 3.66,-5.91 4.51,-8.17 9.72,-13.94 5.22,-5.77 9.07,-9.6 13.41,-14.33 4.34,-4.73 7.37,-6 11.95,-10.18 4.57,-4.19 12.48,-5.5 12.48,-5.5 0,0 8.76,-1.99 15.53,-2.91 6.76,-0.93 15.21,-1.54 22.58,-1.08 7.38,0.46 7.07,0.46 10.91,2.15 3.85,1.69 7.53,4.15 11.83,8.91 4.3,4.77 6.85,8.82 7.77,13.74 0.92,4.91 0.54,7.61 0.54,13.45 0,5.84 -0.62,7.85 -2.62,13.69 -1.99,5.84 -1.84,5.68 -4.45,10.45 -2.18,3.96 -3.02,5.04 -4.55,6.76 -0.31,0.35 -2.47,2.64 -4.37,4.92 -1.9,2.27 -4.8,6.62 -8.91,8.6 -4.11,1.98 -7.4,2.88 -12.91,2.46 -5.5,-0.42 -8.97,-2.33 -12.14,-4.92 -3.17,-2.58 -3.17,-7.97 -3.53,-11.36 -0.37,-3.41 -1.12,-5.48 1.07,-9.07 2.19,-3.6 2.36,-3.71 4.15,-4.46 1.79,-0.76 5.82,0.23 9.07,2.92 3.25,2.69 1.6,2.8 5.84,2.76 4.23,-0.03 6.54,-2.49 8.6,-4.91 2.07,-2.42 1.85,-2.44 2.46,-6.3 0.61,-3.87 1.18,-5.33 -0.15,-10.3 -1.33,-4.97 -2.79,-5.07 -5.23,-8.15 -2.43,-3.06 -2.63,-2.62 -7.07,-4.75 -4.43,-2.14 -6.76,-3.58 -12.13,-3.38 -5.39,0.18 -8.57,2.76 -10.91,4.91 -2.35,2.15 -9.17,9.26 -11.84,12.91 -2.66,3.65 -14.88,22.45 -16.29,27.66 -1.41,5.22 -2.6,22.26 -2.45,26.89 0.14,4.64 0.59,17.02 1.53,22.74 0.94,5.73 3.84,12.76 5.69,19.21 1.84,6.46 6.45,14.45 12.13,25.36 2.43,4.65 5.55,6.89 7.69,9.07 2.89,2.92 4.75,5.13 7.84,7.06 5.37,3.38 7.38,4.62 13.98,5.84 6.61,1.23 15.83,1.23 20.59,-0.3 4.76,-1.54 16.6,-5.23 21.98,-9.07 5.37,-3.85 11.06,-8.6 19.51,-17.06 8.46,-8.45 12.76,-13.21 17.48,-21.32 4.73,-8.1 10.49,-16.33 13.1,-22.82 2.61,-6.49 6.34,-25.35 6.34,-25.35 0,0 3.38,-15.22 4.23,-25.36 0.84,-10.14 -1.69,-24.3 -2.54,-28.31 -0.84,-4.02 -4.65,-22.82 -4.65,-22.82 0,0 -5.07,-23.25 -5.07,-23.25 0,0 -6.29,-17.32 -11.98,-27.77 -5.69,-10.45 -23.09,-31.81 -23.09,-31.81 0,0 -24.94,-22.4 -24.94,-22.4 0,0 -54.93,-18.59 -54.93,-18.59 0,0 -57.9,2.96 -57.9,2.96 0,0 -39.3,20.7 -39.72,20.7 -0.42,0 -32.12,31.27 -32.12,31.27 0,0 -25.35,47.33 -25.35,47.33 0,0 -12.68,57.48 -12.68,57.48 0,0 -1.27,62.54 -1.27,62.54 0,0 24.09,67.61 24.09,67.61 0,0 29.16,41 29.16,41.42 0,0.42 19.44,22.82 31.27,32.96 6.35,5.44 19.68,17.22 34.44,28.31 12.76,9.6 27.89,19.02 38.46,24.51 10.56,5.5 36.37,13.4 46.27,16.06 21.97,5.92 53.67,3.8 53.67,3.8 0,0 33.71,-3.88 64.93,-13.66 25.53,-8 48.18,-21.08 59.45,-29.58 14.86,-11.2 39.35,-35.82 57.19,-61.41 14.89,-21.35 24.25,-44.31 28.03,-52.13 4.1,-8.47 23.52,-85.92 23.25,-109.02 -0.28,-23.1 1.85,-50.5 -5.08,-79.73 -8.02,-33.81 -23.67,-66.41 -30.84,-80.01 -6.29,-11.92 -23.06,-41.04 -44.1,-67.9 -23.71,-30.29 -52.02,-58.27 -61.13,-66.49 -17.18,-15.49 -58.32,-44.79 -78.6,-59.58 -11.49,-8.38 -26.88,-20.2 -41.41,-30.43 -11.14,-7.83 -21.51,-13.65 -30.85,-22.82 -9.35,-9.16 -15.66,-21.25 -23.25,-32.11 -9.91,-14.19 -19.86,-26.2 -19.86,-26.2 0,0 -24.51,-32.12 -39.3,-51.98 -6.89,-9.26 -8.08,-21.23 -11.41,-30.85 -3.82,-11.03 -9.38,-19.76 -11.41,-31.27 -1.95,-11.07 -6.49,-34.22 -5.49,-55.36 z m 791.51,350.75 c 10.63,2.53 122.53,26.22 215.52,32.11 69.58,4.41 121.59,-6.41 151.43,-7.68 69.73,-2.96 148.18,-50.21 148.18,-50.21 0,0 -28.04,26.79 -59.02,52.26 -25.08,20.62 -55.02,38 -70.71,43.67 -35.08,12.67 -165.66,34.65 -165.66,34.65 0,0 -22.1,24.72 -38.45,51.98 -16.61,27.68 -27.47,57.89 -27.47,57.89 0,0 29.62,-27.56 52.82,-39.72 20.1,-10.54 38.88,-5.07 38.88,-5.07 0,0 -9.51,29.37 -9.51,29.37 0,0 -11.62,-5.07 -19.65,-0.64 -2.43,1.35 -12.07,3.97 -21.55,11.62 -9.03,7.29 -17.61,19.4 -26.62,27.9 -12.7,11.96 -11.41,6.97 -24.51,19.43 -13.1,12.47 14.79,181.51 77.75,250.39 0,0 51.23,79.85 55.22,142.83 5.49,86.6 -36.06,162.84 -36.06,162.84 0,0 -36.07,46.94 -80.58,74.38 -42.49,26.2 -67.04,30.28 -94.51,36.2 -13.59,2.92 -82.59,7.53 -134.81,-13.95 -53.34,-21.94 -89.88,-70.18 -101.84,-87.05 -12.92,-18.23 -58.6,-108.91 -55.78,-187.21 2.34,-65.07 51.1,-120.11 61.27,-131.42 12.53,-13.95 47.8,-44.32 89.17,-59.16 32.59,-11.69 71.91,-10.21 86.63,-7.61 17.06,3.02 55.51,19.73 80.29,43.95 23.7,23.16 34.08,53.68 36.77,63.81 2.5,9.45 8.28,55.81 -1.27,87.9 -11.39,38.25 -39.37,62.8 -49.02,71.41 -17.75,15.84 -52.44,33.19 -84.75,19.82 -14.27,-5.89 -28.34,-17.43 -36.73,-32.26 -10.41,-18.4 -13.5,-40.45 -13.98,-46.57 -0.82,-10.26 -0.15,-40.58 10.14,-61.47 11.95,-24.26 34.33,-38.79 42.07,-41.37 7.27,-2.42 31.73,-7.63 44.41,1.7 12.41,9.14 15.58,30.88 16.36,37.46 0.67,5.65 -1.2,20.94 -6.33,28.5 -6.96,10.22 -21.03,13.79 -28.12,11.67 -5.89,-1.76 -12.18,-9.57 -12.61,-16.74 -0.47,-7.87 5.52,-14.96 12.61,-11.99 13.55,5.68 17.13,-0.23 14.67,-10.87 -2.46,-10.64 -4.3,-17.48 -10.22,-22.17 -3.16,-2.5 -16.61,-2.13 -26.28,4.76 -8.44,6.02 -13.22,17.96 -15.98,25.06 -3.44,8.84 -8.54,35.37 -3.94,58.9 3.32,16.92 13.32,31.72 24.72,39.94 15.3,11.03 59.45,-4.66 79.87,-43.1 15.98,-30.08 11.19,-81.46 8.03,-95.93 -3.68,-16.89 -19.04,-52.53 -44.79,-70.15 -24.51,-16.77 -59.03,-16.01 -78.6,-13.95 -18.66,1.96 -64.75,21.24 -89.59,51.98 -28.63,35.42 -34.93,83.01 -35.55,86.37 -1.17,6.28 -3.01,9.76 -1.22,31.53 0.9,10.9 6.73,108.48 49.02,167.77 19.72,27.65 41.46,54.08 66.77,66.77 28.87,14.47 60.62,13.21 68.04,13.1 17.34,-0.25 58,-9.41 96.77,-37.19 27.04,-19.38 51.08,-52.67 74.38,-77.9 43.06,-46.64 32.11,-105.08 32.11,-105.08 0,0 -1.12,-71.27 -30.42,-135.51 -20.45,-56.56 -38.31,-74.94 -58.32,-110.01 -20,-35.08 -35.07,-94.45 -34.86,-148.33 0,0 -31.22,9.35 -47.97,-0.85 -16.94,-10.3 -19.01,-17.75 -20.7,-26.83 -0.92,-4.89 0.7,-21.54 7.6,-23.24 5.93,-1.47 16.61,10.9 23.25,18.8 14.36,17.12 41.41,5.07 41.41,5.07 0,0 10.91,-40.2 30.85,-75.64 18.9,-33.6 46.91,-62.54 46.91,-62.54 0,0 -48.14,-10.07 -98.89,-27.47 -63.81,-21.88 -113.53,-48.74 -133.26,-52.68 -19.72,-3.95 -92.33,-18.72 -138.04,8.73 -63.46,38.1 -91.85,70.43 -86.78,125.36 2.8,30.3 10.73,73.2 36.35,100.58 20.84,22.28 44.51,32.4 61.98,34.09 8.88,0.86 60.19,4.84 86.77,-34.37 25.65,-37.84 38.88,-85.36 26.76,-118.89 -5.84,-16.17 -13.99,-39.16 -30.42,-52.68 -17.64,-14.52 -43.87,-18.93 -58.6,-17.18 -12.37,1.47 -36.17,9.75 -46.2,24.79 -13.05,19.55 -12.04,28.22 -12.45,46.56 -0.19,8.44 1.92,34.73 16.44,47.02 17.03,14.41 47.48,13.8 57.01,5.23 17.67,-15.88 23.41,-43.5 5.69,-57.32 -7.37,-5.75 -13.9,-8.51 -17.37,-7.38 -4.87,1.6 -8.6,5.53 -5.07,8.91 3.54,3.39 9.99,10.45 7.38,17.83 -1.18,3.31 -11.68,10.61 -18.13,4.92 -6.46,-5.69 -10.16,-9.2 -11.53,-16.9 -1.41,-7.92 1.69,-15.84 4.15,-18.75 2.46,-2.93 16.13,-14.25 32.52,-13.88 16.21,0.38 25.07,5.15 34.18,13.1 4.35,3.77 11.25,20.56 9.98,35.81 -1.4,16.78 -13.49,33.85 -17.16,39.65 -3.42,5.38 -29.66,21.07 -53.11,20.07 -24.72,-1.05 -34.5,-7.04 -46.62,-18.95 -12.11,-11.9 -29.83,-33.13 -28.38,-67.04 1.36,-31.95 23.87,-53.04 34.01,-64.8 4.79,-5.55 22.37,-14.72 42.9,-17.61 23.01,-3.24 36.97,-2.54 48.95,0.14 11.97,2.67 45.82,15.85 72.12,44.65 23.72,25.99 23.38,45.5 24.93,67.62 0.76,10.86 -1.38,35.01 -9.72,58.74 -8.65,24.58 -23.77,48.75 -37.61,60.01 -10.22,8.31 -49.4,40.13 -82.4,40.56 -54.79,0.72 -73.26,-2.81 -109.31,-34.37 -18.13,-15.85 -53.26,-68.66 -59.73,-118.18 -6.4,-49 7.61,-77.33 15.78,-94.8 8.16,-17.46 38.31,-53.11 83.39,-72.12 45.08,-19.02 32.26,-12.68 82.82,-16.34 50.58,-3.67 50.22,0.91 73.25,2.81 23.04,1.91 38.88,5.71 57.48,10.15 z"
         style="display:inline;fill:#dadae3;fill-opacity:1" />
      <path
         id="small letters"
         fill="none"
         stroke="#000000"
         stroke-width="1"
         d="m 1799.0383,1320.6553 c 0,0 -20.28,142.84 -19.44,170.31 0.85,27.46 7.04,39.3 25.64,47.47 18.59,8.16 29.58,2.53 34.09,-0.29 4.51,-2.81 36.9,-27.04 36.9,-27.04 0,0 -2.81,-10.42 -7.88,-13.59 -5.07,-3.17 -7.61,-1.27 -12.68,1.69 -5.07,2.95 -20.5,14.58 -25.14,16.48 -4.65,1.9 -6.06,2.4 -11.2,2.11 -5.15,-0.29 -8.07,-1.21 -10.84,-5.05 -2.76,-3.84 -0.15,-39.03 0.31,-46.25 0.46,-7.23 3.22,-41.19 4.31,-50.1 1.07,-8.91 9.58,-60.81 10.75,-72.99 1.17,-12.18 3.92,-37.75 7.72,-45.78 3.81,-8.03 18.27,-18.8 28.1,-30.85 9.83,-12.04 24.51,-21.97 32.75,-25.99 8.24,-4.01 30.01,-15.84 36.35,-18.38 6.34,-2.53 23.03,-5.28 32.33,-5.07 9.29,0.21 5.05,-23.45 5.05,-23.45 0,0 -28.43,-3.08 -40.72,2.91 -5.94,2.9 -17.65,7.86 -27.98,13.99 -11.06,6.57 -20.69,14.33 -24.42,17.82 -7.23,6.77 -16.15,18.29 -23.36,17.68 -7.23,-0.62 3.99,-24.13 6.76,-28.89 2.76,-4.77 7.68,-26.59 10.44,-35.04 2.78,-8.45 8.15,-23.97 12.92,-34.88 4.76,-10.91 7.99,-17.36 7.22,-22.59 -0.77,-5.23 -2.61,-8.91 -8.45,-8.46 -5.85,0.47 -6.61,4.15 -13.98,8.15 -7.38,4 -16.45,8.3 -19.68,10.76 -3.23,2.46 1.23,5.38 2.31,7.84 1.07,2.45 -2.31,11.52 -4.15,16.28 -1.84,4.77 -12.97,38.86 -15.71,48.58 -2.75,9.72 -9.51,38.04 -10.36,43.53 -0.84,5.49 -7.6,28.1 -9.51,32.54 -1.9,4.44 -9.08,7.18 -14.79,8.45 -5.7,1.27 -18.02,-0.48 -21.4,-3.25 -3.38,-2.76 -4.45,-3.84 -8.3,-2.68 -3.83,1.15 -9.52,10.83 -11.52,14.44 -2,3.61 -3.22,9.99 -3,13.21 0.23,3.23 8,7.15 12.06,8.22 4.08,1.08 19.53,0.7 24.68,-0.22 5.14,-0.92 10.67,-3.38 12.44,-4.15 1.76,-0.77 1.38,2.53 1.38,2.53 z m 158.47,18.81 c 0.65,-1.56 37.61,-22.4 48.39,-23.88 10.78,-1.48 4.01,6.13 3.17,9.3 -0.85,3.17 -27.68,83.25 -31.27,96.35 -1.9,6.91 -7.81,26.39 -10.99,44.16 -2.84,15.9 -3.12,30.35 -2.32,34.44 0.88,4.53 2.66,11.6 6.97,16.69 3.94,4.65 10.24,7.52 14.58,7.82 9.08,0.63 32.96,-7.4 40.78,-12.25 7.82,-4.86 24.93,-15.01 27.89,-18.39 1.66,-1.9 4.52,-18.95 8.45,-35.28 3.06,-12.72 7.34,-25.13 8.45,-28.74 2.54,-8.24 22.19,-72.47 25.36,-77.33 3.17,-4.86 -4.02,-12.47 -4.02,-17.75 0,-5.28 10.57,-7.19 17.12,-8.67 6.55,-1.47 16.9,-10.56 23.87,-9.29 6.98,1.27 1.69,11.83 0.64,15.63 -1.06,3.81 -21.77,50.5 -25.99,61.28 -4.23,10.77 -18.17,61.7 -19.86,69.09 -1.69,7.4 -7.82,33.6 -5.92,39.3 1.05,3.16 1.68,6.11 4.02,7.09 1.89,0.78 5.33,-0.06 7.6,-0.54 5.07,-1.05 8.03,-2.96 11.2,0.21 3.17,3.17 6.13,8.46 6.13,12.47 0,4.02 -21.13,17.75 -26.2,20.07 -5.07,2.33 -13.53,4.02 -18.39,0.43 -4.86,-3.6 -12.67,-24.3 -12.88,-28.74 -0.22,-4.44 -4.65,-3.17 -5.92,-1.69 -0.6,0.7 -9.52,9.2 -21.76,16.06 -13.54,7.58 -30.67,13.6 -34.66,14.15 -3.74,0.53 -18.32,1.52 -29.37,-1.47 -11.37,-3.09 -19.19,-10.21 -21.34,-13.32 -1.89,-2.73 -6.87,-7.84 -8.24,-17.11 -1.69,-11.46 0.53,-27.44 1.69,-31.06 2.12,-6.55 9.09,-50.71 11.41,-59.37 2.33,-8.67 12.47,-50.5 13.95,-56.21 1.48,-5.7 2.53,-10.77 1.9,-15 -0.63,-4.23 -5.09,-6.9 -4.44,-8.45 z m 195.24,137.97 c 0.04,-9.64 0.73,-16.48 1.81,-27.24 0.53,-5.36 3.61,-21.3 10.44,-37.98 6.88,-16.76 17.52,-34.28 22.82,-41.69 6.38,-8.93 19.94,-25.79 35.5,-36.62 10.24,-7.14 21.97,-10.38 30.85,-11.56 22.4,-2.96 26.2,5.92 32.96,14.79 6.76,8.88 13.41,25.93 14.33,28.55 0.93,2.61 2.92,2.61 4.76,-1.23 1.85,-3.85 23.59,-71.69 28.24,-84.79 4.65,-13.1 33.81,-91.28 37.61,-98.46 3.81,-7.19 11.14,-14.99 13.14,-17.75 2,-2.76 -1.23,-15.68 0,-16.9 1.23,-1.23 7.22,-3.38 12.29,-3.38 5.07,0 24.74,-11.22 29.04,-11.69 4.31,-0.45 6.16,2.93 5.69,6.31 -0.45,3.38 -21.03,31.11 -25.66,39.8 -4.64,8.68 -21.33,43.48 -29.05,64.54 -7.7,21.05 -18.35,49.19 -26.27,71.61 -7.91,22.4 -20.87,60.44 -25.94,78.75 -5.07,18.32 -26.49,106.22 -27.05,114.67 -0.56,8.45 0.07,10 2.18,10.84 2.12,0.85 6.34,-0.84 11.1,-4.97 4.75,-4.11 9.72,-9.72 14.05,-10.24 4.32,-0.53 10.56,2.74 11.31,6.34 0.73,3.59 -8.57,18.8 -12.48,23.24 -2.03,2.31 -7.23,11.45 -15.74,13.87 -7.86,2.23 -19,-2.05 -22.6,-4.79 -3.17,-2.4 -8.97,-7.48 -11.82,-14.57 -3.9,-9.7 -4.44,-21.75 -4.98,-23.04 -0.95,-2.22 -4.65,2.23 -8.87,6.55 -2.36,2.42 -13.19,14.68 -26.87,22.94 -10.85,6.55 -24.24,9.73 -31.35,9.6 -7.29,-0.12 -17.1,-1.85 -24.28,-6.83 -8.62,-6 -14.21,-15.81 -17.13,-21.34 -5.35,-10.14 -8.07,-27.68 -8.03,-37.33 z m 293.98,31.7 c 0.71,1.37 -16.06,25.92 -25.92,31.55 -9.86,5.63 -25.64,9.02 -34.09,0.84 -8.45,-8.16 -9.01,-30.7 -6.48,-44.79 2.54,-14.08 20,-67.62 23.95,-78.04 3.95,-10.42 18.31,-40.57 25.08,-54.37 6.76,-13.81 9.57,-12.96 12.67,-21.69 3.1,-8.73 -1.97,-6.2 0.56,-9.3 2.54,-3.1 30,-10.52 36.44,-9.45 6.46,1.07 5.24,4.15 2.93,7.99 -2.31,3.84 -18.9,25.2 -22.59,30.27 -3.69,5.07 -22.55,38.8 -28.05,52.75 -5.49,13.95 -15.63,52.19 -16.9,58.53 -1.27,6.34 -4.86,25.56 -5.28,31.06 -0.42,5.49 5.91,8.03 10.14,5.91 4.23,-2.11 13.19,-11.31 14.88,-11.73 1.69,-0.43 6.11,3.74 6.99,4.55 0.88,0.81 4.97,4.55 5.67,5.92 z m 29.76,-229.66 c -3.22,-0.92 -6.92,-5.84 -3.38,-15.52 3.54,-9.69 7.22,-25.36 11.84,-31.97 4.6,-6.6 8.29,-10.14 13.97,-9.37 5.69,0.77 9.07,-0.46 10.61,7.38 1.53,7.84 -3.38,19.36 -6.92,24.74 -3.53,5.37 -12.44,19.67 -17.06,22.13 -4.6,2.45 -5.84,3.53 -9.06,2.61 z m 28.27,251.21 c -1.84,-3.2 -7.58,-16.41 -8.87,-34.86 -1.53,-21.85 1.71,-49.88 4.23,-60.65 2.51,-10.76 9.41,-29.81 18.8,-47.11 7.94,-14.63 18.11,-28.02 24.3,-34.02 7.51,-7.28 20.62,-16.85 34.86,-23.88 11.41,-5.63 24.11,-9.56 31.06,-9.93 15.64,-0.85 32.12,8.87 38.04,20.71 5.91,11.83 3.9,13.52 5.49,15.84 1.59,2.33 4.33,1.48 7.4,-0.31 3.06,-1.8 23.66,-15.74 27.46,-18.7 3.81,-2.96 19.02,-12.05 25.78,-11.41 6.76,0.63 6.13,5.28 6.34,7.39 0.21,2.12 -10.99,25.57 -13.52,29.16 -2.54,3.59 -10.14,4.86 -17.12,6.13 -6.97,1.27 -33.17,20.28 -36.13,24.72 -2.96,4.44 -0.21,22.4 -3.17,34.65 -2.96,12.26 -16.48,41.84 -23.66,54.94 -7.19,13.1 -28.95,39.09 -39.73,46.27 -10.77,7.19 -24.08,18.6 -36.13,18.81 -12.04,0.21 -26.41,-2.12 -31.9,-5.71 -5.5,-3.59 -9.51,-5.07 -13.53,-12.04 z m -156.63,459.07 c -9.13,-0.53 -17.91,-3.69 -21.42,-6.76 -2.62,-2.3 -9.03,-7.66 -10.7,-18.31 -2.64,-16.8 0.6,-42.04 4.23,-53.25 5.91,-18.31 26.2,-80.01 31.27,-94.66 5.07,-14.65 7.32,-16.62 3.66,-23.66 -3.66,-7.04 -2.54,-7.04 -0.85,-8.46 1.69,-1.41 21.98,-5.91 30.43,-6.48 8.45,-0.56 10.23,-0.65 12.2,2.73 1.97,3.38 0.49,5.57 -0.63,7.82 -1.13,2.26 -6.78,11.15 -9.88,17.06 -3.1,5.92 -23.94,52.41 -26.2,59.17 -2.26,6.76 -18.32,68.73 -18.87,74.65 -0.57,5.92 1.4,16.63 7.6,17.19 6.2,0.56 15.5,0.85 20.85,-3.38 5.35,-4.22 7.6,-7.05 10.98,-7.05 3.38,0 9.59,7.9 10.71,12.4 1.13,4.51 -3.66,9.58 -6.76,13.25 -3.1,3.65 -8.45,11.26 -15.78,14.64 -3.52,1.63 -12.36,3.59 -20.84,3.1 z m 29.01,-238.06 c -3.15,-0.23 -8.66,-4.01 -7.39,-10.98 1.27,-6.98 6.76,-32.33 10.14,-37.19 3.38,-4.86 13.52,-10.78 19.23,-11.62 5.7,-0.85 7.45,2.47 7.98,5.85 0.55,3.38 -1.91,13.92 -3.22,17.83 -1.31,3.92 -6.83,14.29 -8.91,18.74 -2.07,4.47 -7.84,11.38 -9.84,13.69 -1.99,2.3 -4.83,3.91 -7.99,3.68 z m 82.41,237.29 c -4.23,1.05 -7.82,1.05 -13.52,0.42 -1.55,-0.17 -6.34,2.75 -6.34,-5.07 0,-7.82 0.06,-30.07 0.21,-34.23 0.21,-5.71 13.1,-77.97 20.07,-96.35 6.97,-18.38 4.44,-44.16 2.96,-52.61 -1.48,-8.46 2.53,-10.36 7.82,-13.74 5.28,-3.38 18.38,-9.93 27.04,-9.93 8.67,0 7.4,2.32 4.86,8.88 -2.53,6.55 -14.15,60.85 -14.37,65.07 -0.21,4.23 2.54,3.6 5.71,-0.42 3.17,-4.01 25.14,-35.07 40.57,-47.96 15.42,-12.89 44.16,-27.68 53.03,-28.74 4.53,-0.54 15.86,-1.33 23.46,0.64 7.26,1.88 10.89,6.43 11.62,10.56 1.48,8.45 -12.89,49.87 -16.27,57.89 -3.38,8.03 -21.13,60.86 -24.51,72.27 -3.38,11.41 -8.67,27.68 -8.24,35.07 0.42,7.4 2.53,6.13 7.18,5.92 4.65,-0.21 8.53,-5.88 11.83,-5.92 3.31,-0.04 12.53,12.95 12.6,14.94 0.08,2.01 -30.13,21.62 -36.05,23.94 -5.92,2.32 -13.73,2.96 -16.27,1.27 -1.38,-0.92 -6.3,-3.48 -8.45,-7.4 -1.81,-3.29 -1.04,-7.72 -0.85,-11.2 0.21,-3.74 2.03,-20.25 6.13,-36.55 4.23,-16.82 10.76,-33.44 12.04,-37.19 2.54,-7.39 19.65,-63.39 19.65,-70.36 0,-6.97 1.91,-16.06 -4.64,-16.27 -6.55,-0.21 -30.85,8.88 -36.14,14.58 -5.28,5.71 -55.99,64.23 -61.06,71.63 -5.07,7.4 -8.45,41.84 -8.87,52.19 -0.43,10.35 0.42,29.37 -1.91,34.44 -2.32,5.07 -5.07,3.17 -9.29,4.23 z m 205.52,-30.5 c -3.58,-6.9 -4.58,-33.31 -3.63,-44.41 0.35,-1.06 0.64,-4.62 1.16,-5.28 8.24,-6.13 66.14,-36.52 75.71,-41.87 9.59,-5.35 15.22,-7.89 17.47,-11.27 2.26,-3.38 5.64,-58.88 3.66,-67.61 -1.97,-8.74 -9.57,-16.63 -15.49,-19.16 -5.92,-2.54 -21.34,-2.46 -37.19,5.07 -15.85,7.54 -34.72,29.72 -44.51,44.51 -9.79,14.79 -21.62,42.26 -25.64,62.54 -4.01,20.29 -7.33,56.91 -5.07,67.62 2.26,10.71 7.61,28.74 16.06,36.06 8.45,7.32 25.08,11.55 36.34,11.55 11.27,0 30.15,-2.54 37.76,-8.17 7.6,-5.63 19.44,-16.62 20.56,-20.57 1.12,-3.94 -5.92,-11.83 -10.71,-14.64 -4.78,-2.82 -9.85,8.45 -15.77,12.39 -5.92,3.94 -23.39,8.46 -30.99,7.32 -7.61,-1.12 -15.78,-6.47 -19.72,-14.08 z m 150.15,-167.06 c -2.71,-2.69 -0.84,-7.04 3.38,-10.99 4.23,-3.95 32.97,-17.18 37.76,-14.65 4.79,2.54 -6.48,42.82 -2.26,46.77 4.23,3.94 38.88,-32.12 65.93,-36.63 27.04,-4.51 30.99,-0.28 38.87,5.08 7.9,5.35 -6.19,17.18 -10.14,20.56 -3.94,3.38 -13.8,1.69 -18.31,1.12 -4.51,-0.56 -14.36,-4.78 -24.79,2.26 -10.42,7.04 -47.61,29.01 -53.53,40.57 -5.91,11.55 -15.21,65.36 -17.47,78.32 -2.25,12.96 -0.84,44.23 -6.76,60.57 -5.92,16.34 -5.92,10.42 -9.3,10.7 -3.38,0.28 -19.43,0.85 -23.09,-4.5 -3.66,-5.36 1.69,-19.73 3.1,-26.77 1.4,-7.04 12.67,-90.43 14.64,-109.87 1.97,-19.44 6.2,-41.69 7.04,-47.9 0.85,-6.19 -2.35,-11.96 -5.07,-14.64 z"
         style="fill:#8d5348;fill-opacity:1" />
      <path
         id="small letters sub"
         fill="none"
         stroke="#000000"
         stroke-width="1"
         d="m 2265.5783,1493.4953 c 0,0 -23.67,20.92 -35.29,25.78 -11.62,4.86 -32.32,10.56 -42.68,2.32 -10.35,-8.24 -9.93,-33.59 -7.39,-47.33 2.53,-13.73 13.52,-48.59 21.34,-59.58 7.82,-10.99 30.64,-43.11 40.57,-52.61 9.93,-9.51 21.13,-16.91 30.85,-15.43 9.71,1.48 13.52,7.4 19.65,17.96 6.12,10.57 5.7,13.95 6.76,19.23 1.05,5.28 -4.02,15.42 -6.55,25.14 -2.54,9.72 -7.82,28.74 -10.57,40.36 -2.74,11.62 -6.34,23.67 -8.03,29.37 -1.69,5.71 -1.75,6.9 -3.44,9.22 -1.69,2.33 -5.22,5.57 -5.22,5.57 z m 359.2,-109.73 c -1.46,2.1 -12.11,12.68 -20.01,11.83 -7.88,-0.84 -13.8,-3.38 -12.39,-18.31 1.41,-14.93 10.68,-23.51 14.08,-26.2 3.41,-2.69 9.64,-4.61 11.63,-2.46 2,2.15 8.85,10.91 9,14.98 0.15,4.08 0.69,8.84 0.38,11.76 -0.31,2.92 -1.23,6.3 -2.69,8.4 z m -63.39,-5.91 c 1.47,0.16 0.47,11.88 4.53,21.78 3.78,9.22 10.68,16.21 16.81,18.85 6.13,2.65 12.42,4.05 18.91,3.49 5.76,-0.5 12.79,-2.79 17.22,-4.4 4.44,-1.62 4.23,3.56 3.66,7.04 -0.55,3.48 -4.96,21.94 -6.94,29.26 -1.05,3.93 -6.28,21.53 -15.21,36.87 -7.72,13.27 -18.85,24.85 -22.64,28.25 -8.17,7.32 -20,16.34 -29.29,16.9 -9.3,0.56 -17.75,-3.1 -20.86,-11.83 -3.1,-8.74 -4.5,-52.97 -2.53,-63.39 1.97,-10.43 8.45,-40.57 11.55,-46.2 3.1,-5.64 8.45,-18.6 12.39,-23.1 3.95,-4.51 9.56,-13.86 12.4,-13.52 z m 102.69,518.37 c 2.54,3.38 61.7,-43.32 66.77,-52.61 5.07,-9.3 6.55,-43.74 1.48,-49.66 -5.07,-5.91 -14.58,1.69 -18.6,4.23 -4.01,2.53 -28.1,25.99 -35.92,44.58 -7.81,18.59 -16.26,50.08 -13.73,53.46 z"
         style="display:inline;fill:#e0c693;fill-opacity:1" />
      <path
         id="Initials"
         fill="none"
         stroke="#000000"
         stroke-width="1"
         d="m 1288.9783,1230.2253 c 0.95,-20.05 7.28,-38.12 10.56,-49.02 6.76,-22.4 11.29,-46.79 39.73,-83.25 26.88,-34.49 70.99,-58.74 70.99,-58.74 0,0 30.31,-18.59 52.82,-25.36 40.68,-12.23 75.11,-15.90003 85.1,-15.75003 9.99,0.16 57.56,4.02003 80.14,9.41003 38.48,9.19 50.71,21.56 50.71,21.56 0,0 31.63,21.95 51.13,46.9 19.79,25.33 27.47,53.67 27.47,53.67 0,0 9.52,28.95 10.56,54.09 1.07,25.57 -6.34,47.33 -6.34,47.33 0,0 -10.19,21.09 -22.39,39.3 -14.26,21.28 -30.85,40.15 -30.85,40.15 0,0 -21.6,18.41 -42.68,29.16 -22,11.21 -43.53,14.79 -43.53,14.79 0,0 -27.13,2.78 -52.82,-4.65 -25.44,-7.36 -49.45,-24.93 -49.45,-24.93 0,0 -13,-9.7 -20.7,-22.4 -7.94,-13.07 -13.95,-28.59 -13.95,-28.59 0,0 -5.69,-14.02 -8.45,-30.57 -3.49,-20.96 -0.84,-46.06 -0.84,-46.06 0,0 0.22,-18.62 6.33,-34.23 5.24,-13.37 16.48,-24.09 16.48,-24.09 0,0 12.62,-12.78 26.21,-21.98 13.88,-9.39 28.73,-15.21 28.73,-15.21 0,0 20.6,-6.4 37.61,-4.22 19.2,2.46 35.08,13.52 35.08,13.52 0,0 12.13,10.73 17.32,21.97 4.96,10.73 2.96,21.98 2.96,21.98 0,0 -0.11,10.83 -3.8,20.28 -3.91,9.98 -11.41,18.6 -11.41,18.6 0,0 -10.08,3.99 -18.17,4.22 -6.53,0.19 -11.41,-3.38 -11.41,-3.38 0,0 -8.92,-2.6 -12.89,-8.55 -2.54,-5.82 -2.33,-14.27 -2.33,-14.27 0,0 3.85,-7.61 8.45,-7.82 5.09,-0.22 9.4,8.24 9.4,8.24 0,0 1.36,2.21 3.28,3.06 1.68,0.76 3.95,0.18 3.95,0.18 0,0 4.59,-0.81 6.72,-3.76 2.24,-3.1 2.01,-8.35 2.01,-8.35 0,0 1.27,-11.83 -1.12,-17.18 -2.4,-5.36 -6.81,-9.97 -9.02,-12.4 -2.22,-2.44 -11.83,-6.2 -21.41,-5.92 -4.67,0.14 -17.22,5.56 -26.98,13.1 -10.29,7.96 -17.75,18.17 -20.35,23.81 -5.07,10.99 -9.58,29.86 -9.3,43.1 0.15,6.94 1.02,16.87 4.72,27.54 3.35,9.69 9.4,20.2 12.74,25.42 4.14,6.44 9.39,17.56 17.69,26.98 5.86,6.66 14.03,11.98 20.91,16.42 3.76,2.41 6.51,3.59 13.53,5.27 5.95,1.43 14.25,3.8 20.75,3.23 8.88,-0.81 18,-5.33 25.5,-8.15 9.11,-3.43 16.91,-5.22 20.52,-7.68 3.6,-2.46 24.23,-22.35 36.34,-39.94 10.39,-15.1 13.93,-29.21 15.49,-34.16 1.88,-5.96 2.46,-27.72 0.14,-49.09 -1.84,-16.99 -6.03,-33.54 -9.15,-43.03 -7.05,-21.41 -43.25,-61.35 -53.53,-71.28 -5.09,-4.92 -21.34,-15.12 -42.39,-22.66 -21.43,-7.7 -47.77,-12.69 -62.41,-12.83 -12.47,-0.12 -29.73,1.47 -44.85,6.06 -20.06,6.11 -37.31,16.21 -43.9,21.83 -11.54,9.86 -16.97,12.23 -31.76,26.41 -15.61,14.97 -29.09,31.9 -29.09,31.9 0,0 -13.18,18.19 -24.37,36.98 -10.92,18.32 -19.86,37.26 -19.86,37.4 0,0.14 -7.76,21.26 -10.99,42.05 -3.1,19.97 -1.69,39.65 -1.69,39.65 0,0 -0.03,16.32 3.38,31.76 3.56,16.1 10.57,31.34 10.71,31.34 0.14,0 7.3,22.87 17.82,44.1 11.48,23.15 26.41,44.81 26.41,44.37 0,-0.46 22.97,23.29 46.48,43.31 20.19,17.19 41.42,31.06 41.42,31.06 0,0 94.66,64.24 94.66,64.24 0,0 62.96,59.16 78.6,78.6 15.64,19.44 25.78,40.99 38.03,62.54 12.26,21.55 30.43,69.31 38.88,93.82 8.45,24.51 10.14,72.68 10.14,103.95 0,31.27 -12.11,47.33 -20.28,67.62 -8.17,20.28 -29.86,58.31 -54.94,89.59 -25.07,31.27 -46.2,50.43 -65.92,65.07 -19.72,14.65 -72.69,29.86 -96.35,35.5 -23.67,5.64 -41.98,5.07 -78.6,5.07 -36.62,0 -74.38,-9.01 -97.2,-18.59 -22.82,-9.58 -57.19,-30.43 -80.01,-47.61 -22.82,-17.19 -39.72,-43.95 -55.78,-63.68 -16.06,-19.71 -34.37,-56.33 -43.39,-82.26 -9.01,-25.92 -11.83,-76.63 -11.83,-94.66 0,-18.02 9.58,-50.14 17.75,-69.3 8.17,-19.16 9.3,-21.41 20.28,-38.88 10.99,-17.47 19.16,-22.82 27.05,-32.12 7.89,-9.29 11.83,-13.8 26.2,-23.66 14.37,-9.86 22.25,-15.49 43.1,-27.05 20.86,-11.55 23.67,-9.57 36.35,-11.83 12.68,-2.26 42.54,-1.41 51.55,-0.84 9.02,0.56 31.55,7.32 46.49,11.83 14.93,4.5 21.69,10.42 35.92,17.75 14.22,7.32 15.63,9.29 24.09,16.9 8.45,7.61 15.49,20.01 21.55,28.31 6.06,8.31 11.13,16.49 15.63,26.2 4.51,9.72 8.73,19.59 10.99,30.43 2.26,10.84 7.04,26.9 8.03,38.46 0.99,11.55 -0.42,32.11 -1.27,46.48 -0.84,14.37 -1.12,21.41 -3.8,33.39 -2.68,11.97 -14.23,37.61 -20.71,49.86 -6.48,12.26 -13.76,19.38 -22.82,28.54 -9.06,9.16 -10.52,12.3 -17.4,17.52 -6.88,5.23 -17.71,13.89 -31.69,20.71 -14,6.82 -17.96,6.91 -33.74,7.61 -15.77,0.7 -23.66,-1.84 -35.07,-3.81 -11.41,-1.97 -17.89,-4.22 -26.2,-10.56 -8.31,-6.34 -11.13,-7.75 -19.02,-19.44 -7.88,-11.69 -7.32,-14.51 -12.67,-28.31 -5.35,-13.81 -5.08,-20.57 -6.77,-34.66 -1.69,-14.08 -0.27,-16.9 0.85,-27.46 1.12,-10.57 1.97,-14.23 5.07,-22.4 3.1,-8.17 4.79,-16.06 8.45,-21.98 3.66,-5.91 4.51,-8.17 9.72,-13.94 5.22,-5.77 9.07,-9.6 13.41,-14.33 4.34,-4.73 7.37,-6 11.95,-10.18 4.57,-4.19 12.48,-5.5 12.48,-5.5 0,0 8.76,-1.99 15.53,-2.91 6.76,-0.93 15.21,-1.54 22.58,-1.08 7.38,0.46 7.07,0.46 10.91,2.15 3.85,1.69 7.53,4.15 11.83,8.91 4.3,4.77 5.69,8.45 6.61,13.37 0.92,4.92 0.47,8.3 0.47,14.14 0,5.84 0.61,7.53 -1.39,13.37 -1.99,5.84 -1.84,5.68 -4.45,10.45 -2.18,3.96 -3.02,5.04 -4.55,6.76 -0.31,0.35 -2.47,2.64 -4.37,4.92 -1.9,2.27 -4.8,6.62 -8.91,8.6 -4.11,1.98 -7.4,2.88 -12.91,2.46 -5.5,-0.42 -8.97,-2.33 -12.14,-4.92 -3.17,-2.58 -3.17,-7.97 -3.53,-11.36 -0.37,-3.41 -1.12,-5.48 1.07,-9.07 2.19,-3.6 2.36,-3.71 4.15,-4.46 1.79,-0.76 5.82,0.23 9.07,2.92 3.25,2.69 1.6,2.8 5.84,2.76 4.23,-0.03 6.54,-2.49 8.6,-4.91 2.07,-2.42 1.85,-2.44 2.46,-6.3 0.61,-3.87 1.18,-5.33 -0.15,-10.3 -1.33,-4.97 -2.79,-5.07 -5.23,-8.15 -2.43,-3.06 -2.63,-2.62 -7.07,-4.75 -4.43,-2.14 -6.76,-3.58 -12.13,-3.38 -5.39,0.18 -8.57,2.76 -10.91,4.91 -2.35,2.15 -9.17,9.26 -11.84,12.91 -2.66,3.65 -14.88,22.45 -16.29,27.66 -1.41,5.22 -2.6,22.26 -2.45,26.89 0.14,4.64 0.59,17.02 1.53,22.74 0.94,5.73 3.84,12.76 5.69,19.21 1.84,6.46 6.45,14.45 12.13,25.36 2.43,4.65 5.55,6.89 7.69,9.07 2.89,2.92 4.75,5.13 7.84,7.06 5.37,3.38 7.38,4.62 13.98,5.84 6.61,1.23 15.83,1.23 20.59,-0.3 4.76,-1.54 16.6,-5.23 21.98,-9.07 5.37,-3.85 11.06,-8.6 19.51,-17.06 8.46,-8.45 12.76,-13.21 17.48,-21.32 4.73,-8.1 10.49,-16.33 13.1,-22.82 2.61,-6.49 6.34,-25.35 6.34,-25.35 0,0 3.38,-15.22 4.23,-25.36 0.84,-10.14 -1.69,-24.3 -2.54,-28.31 -0.84,-4.02 -4.65,-22.82 -4.65,-22.82 0,0 -5.07,-23.25 -5.07,-23.25 0,0 -6.29,-17.32 -11.98,-27.77 -5.69,-10.45 -23.09,-31.81 -23.09,-31.81 0,0 -24.94,-22.4 -24.94,-22.4 0,0 -54.93,-18.59 -54.93,-18.59 0,0 -57.9,2.96 -57.9,2.96 0,0 -39.3,20.7 -39.72,20.7 -0.42,0 -32.12,31.27 -32.12,31.27 0,0 -25.35,47.33 -25.35,47.33 0,0 -12.68,57.48 -12.68,57.48 0,0 -1.27,62.54 -1.27,62.54 0,0 24.09,67.61 24.09,67.61 0,0 29.16,41 29.16,41.42 0,0.42 19.44,22.82 31.27,32.96 6.35,5.44 19.68,17.22 34.44,28.31 12.76,9.6 27.89,19.02 38.46,24.51 10.56,5.5 36.37,13.4 46.27,16.06 21.97,5.92 53.67,3.8 53.67,3.8 0,0 33.71,-3.88 64.93,-13.66 25.53,-8 48.18,-21.08 59.45,-29.58 14.86,-11.2 39.35,-35.82 57.19,-61.41 14.89,-21.35 24.25,-44.31 28.03,-52.13 4.1,-8.47 23.52,-85.92 23.25,-109.02 -0.28,-23.1 1.85,-50.5 -5.08,-79.73 -8.02,-33.81 -23.67,-66.41 -30.84,-80.01 -6.29,-11.92 -23.06,-41.04 -44.1,-67.9 -23.71,-30.29 -52.02,-58.27 -61.13,-66.49 -17.18,-15.49 -58.32,-44.79 -78.6,-59.58 -11.49,-8.38 -26.88,-20.2 -41.41,-30.43 -11.14,-7.83 -21.51,-13.65 -30.85,-22.82 -9.35,-9.16 -15.66,-21.25 -23.25,-32.11 -9.91,-14.19 -19.86,-26.2 -19.86,-26.2 0,0 -24.51,-32.12 -39.3,-51.98 -6.89,-9.26 -8.08,-21.23 -11.41,-30.85 -3.82,-11.03 -9.38,-19.76 -11.41,-31.27 -1.95,-11.07 -6.49,-34.22 -5.49,-55.36 z m 791.51,350.75 c 10.63,2.53 122.53,26.22 215.52,32.11 69.58,4.41 121.59,-6.41 151.43,-7.68 69.73,-2.96 148.18,-50.21 148.18,-50.21 0,0 -28.04,26.79 -59.02,52.26 -25.08,20.62 -55.02,38 -70.71,43.67 -35.08,12.67 -165.66,34.65 -165.66,34.65 0,0 -22.1,24.72 -38.45,51.98 -16.61,27.68 -27.47,57.89 -27.47,57.89 0,0 29.62,-27.56 52.82,-39.72 20.1,-10.54 38.88,-5.07 38.88,-5.07 0,0 -9.51,29.37 -9.51,29.37 0,0 -11.62,-5.07 -19.65,-0.64 -2.43,1.35 -12.07,3.97 -21.55,11.62 -9.03,7.29 -17.61,19.4 -26.62,27.9 -12.7,11.96 -11.41,6.97 -24.51,19.43 -13.1,12.47 14.79,181.51 77.75,250.39 0,0 51.23,79.85 55.22,142.83 5.49,86.6 -36.06,162.84 -36.06,162.84 0,0 -36.07,46.94 -80.58,74.38 -42.49,26.2 -67.04,30.28 -94.51,36.2 -13.59,2.92 -82.59,7.53 -134.81,-13.95 -53.34,-21.94 -89.88,-70.18 -101.84,-87.05 -12.92,-18.23 -58.6,-108.91 -55.78,-187.21 2.34,-65.07 51.1,-120.11 61.27,-131.42 12.53,-13.95 47.8,-44.32 89.17,-59.16 32.59,-11.69 71.91,-10.21 86.63,-7.61 17.06,3.02 55.51,19.73 80.29,43.95 23.7,23.16 34.08,53.68 36.77,63.81 2.5,9.45 8.28,55.81 -1.27,87.9 -11.39,38.25 -39.37,62.8 -49.02,71.41 -17.75,15.84 -52.44,33.19 -84.75,19.82 -14.27,-5.89 -28.34,-17.43 -36.73,-32.26 -10.41,-18.4 -13.5,-40.45 -13.98,-46.57 -0.82,-10.26 -0.15,-40.58 10.14,-61.47 11.95,-24.26 34.33,-38.79 42.07,-41.37 7.27,-2.42 27.47,-4.53 40.14,4.8 12.42,9.14 17.4,29.62 18.17,36.19 0.67,5.66 1.26,19.11 -3.87,26.67 -6.96,10.22 -21.03,13.79 -28.12,11.67 -5.89,-1.76 -12.18,-9.57 -12.61,-16.74 -0.47,-7.87 5.52,-14.96 12.61,-11.99 13.55,5.68 17.13,-0.23 14.67,-10.87 -2.46,-10.64 -4.3,-17.48 -10.22,-22.17 -3.16,-2.5 -16.61,-2.13 -26.28,4.76 -8.44,6.02 -13.22,17.96 -15.98,25.06 -3.44,8.84 -8.54,35.37 -3.94,58.9 3.32,16.92 13.32,31.72 24.72,39.94 15.3,11.03 59.45,-4.66 79.87,-43.1 15.98,-30.08 11.19,-81.46 8.03,-95.93 -3.68,-16.89 -19.04,-52.53 -44.79,-70.15 -24.51,-16.77 -59.03,-16.01 -78.6,-13.95 -18.66,1.96 -64.75,21.24 -89.59,51.98 -28.63,35.42 -34.93,83.01 -35.55,86.37 -1.17,6.28 -3.01,9.76 -1.22,31.53 0.9,10.9 6.73,108.48 49.02,167.77 19.72,27.65 41.46,54.08 66.77,66.77 28.87,14.47 60.62,13.21 68.04,13.1 17.34,-0.25 58,-9.41 96.77,-37.19 27.04,-19.38 51.08,-52.67 74.38,-77.9 43.06,-46.64 32.11,-105.08 32.11,-105.08 0,0 -1.12,-71.27 -30.42,-135.51 -20.45,-56.56 -38.31,-74.94 -58.32,-110.01 -20,-35.08 -35.07,-94.45 -34.86,-148.33 0,0 -31.22,9.35 -47.97,-0.85 -16.94,-10.3 -19.01,-17.75 -20.7,-26.83 -0.92,-4.89 0.7,-21.54 7.6,-23.24 5.93,-1.47 16.61,10.9 23.25,18.8 14.36,17.12 41.41,5.07 41.41,5.07 0,0 10.91,-40.2 30.85,-75.64 18.9,-33.6 46.91,-62.54 46.91,-62.54 0,0 -48.14,-10.07 -98.89,-27.47 -63.81,-21.88 -113.53,-48.74 -133.26,-52.68 -19.72,-3.95 -92.33,-18.72 -138.04,8.73 -63.46,38.1 -91.85,70.43 -86.78,125.36 2.8,30.3 10.73,73.2 36.35,100.58 20.84,22.28 44.51,32.4 61.98,34.09 8.88,0.86 60.19,4.84 86.77,-34.37 25.65,-37.84 38.88,-85.36 26.76,-118.89 -5.84,-16.17 -13.99,-39.16 -30.42,-52.68 -17.64,-14.52 -43.87,-18.93 -58.6,-17.18 -12.37,1.47 -36.17,9.75 -46.2,24.79 -13.05,19.55 -12.04,28.22 -12.45,46.56 -0.19,8.44 1.92,34.73 16.44,47.02 17.03,14.41 47.48,13.8 57.01,5.23 17.67,-15.88 23.41,-43.5 5.69,-57.32 -7.37,-5.75 -13.9,-8.51 -17.37,-7.38 -4.87,1.6 -8.6,5.53 -5.07,8.91 3.54,3.39 9.99,10.45 7.38,17.83 -1.18,3.31 -11.68,10.61 -18.13,4.92 -6.46,-5.69 -10.16,-9.2 -11.53,-16.9 -1.41,-7.92 1.69,-15.84 4.15,-18.75 2.46,-2.93 13.89,-12.82 30.27,-12.45 16.21,0.37 25.21,5.37 34.32,13.32 4.34,3.78 13.36,18.91 12.09,34.16 -1.4,16.78 -13.49,33.85 -17.16,39.65 -3.42,5.38 -29.66,21.07 -53.11,20.07 -24.72,-1.05 -34.5,-7.04 -46.62,-18.95 -12.11,-11.9 -29.83,-33.13 -28.38,-67.04 1.36,-31.95 23.87,-53.04 34.01,-64.8 4.79,-5.55 22.37,-14.72 42.9,-17.61 23.01,-3.24 36.97,-2.54 48.95,0.14 11.97,2.67 45.82,15.85 72.12,44.65 23.72,25.99 23.38,45.5 24.93,67.62 0.76,10.86 -1.38,35.01 -9.72,58.74 -8.65,24.58 -23.77,48.75 -37.61,60.01 -10.22,8.31 -49.4,40.13 -82.4,40.56 -54.79,0.72 -73.26,-2.81 -109.31,-34.37 -18.13,-15.85 -53.26,-68.66 -59.73,-118.18 -6.4,-49 7.61,-77.33 15.78,-94.8 8.16,-17.46 38.31,-53.11 83.39,-72.12 45.08,-19.02 32.26,-12.68 82.82,-16.34 50.58,-3.67 50.22,0.91 73.25,2.81 23.04,1.91 38.88,5.71 57.48,10.15 z"
         style="fill:#8d5348;fill-opacity:1" />
    </g>
  </g>
</svg>
