<?xml version="1.0" encoding="UTF-8" standalone="no"?>
<!-- Created with Inkscape (http://www.inkscape.org/) -->

<svg
   width="2048"
   height="2048"
   viewBox="0 0 541.86665 541.86665"
   version="1.1"
   id="svg5"
   sodipodi:docname="logo3small.svg"
   inkscape:version="1.1 (c68e22c387, 2021-05-23)"
   xmlns:inkscape="http://www.inkscape.org/namespaces/inkscape"
   xmlns:sodipodi="http://sodipodi.sourceforge.net/DTD/sodipodi-0.dtd"
   xmlns="http://www.w3.org/2000/svg"
   xmlns:svg="http://www.w3.org/2000/svg">
  <sodipodi:namedview
     id="namedview7"
     pagecolor="#ffffff"
     bordercolor="#666666"
     borderopacity="1.0"
     inkscape:pageshadow="2"
     inkscape:pageopacity="0.0"
     inkscape:pagecheckerboard="0"
     inkscape:document-units="mm"
     showgrid="false"
     inkscape:zoom="0.18529742"
     inkscape:cx="1351.8807"
     inkscape:cy="358.88249"
     inkscape:window-width="1920"
     inkscape:window-height="1017"
     inkscape:window-x="-8"
     inkscape:window-y="-8"
     inkscape:window-maximized="1"
     inkscape:current-layer="g51"
     width="2048mm"
     units="px" />
  <defs
     id="defs2" />
  <g
     inkscape:label="Layer 1"
     id="layer1"
     inkscape:groupmode="layer"
     sodipodi:insensitive="true">
    <g
       id="g51"
       transform="matrix(0.26462011,0,0,0.26462011,-296.79433,-166.25989)">
      <path
         id="Path"
         fill="none"
         stroke="#000000"
         stroke-width="1"
         d="" />
      <path
         id="Selection"
         fill="none"
         stroke="#000000"
         stroke-width="1"
         d="m 2129.5083,722.39527 c 0,0 -15.22,0.72 -15.22,0.72 0,0 -10.98,0.85 -10.98,0.85 0,0 -11.84,0.77 -11.84,0.77 0,0 -49.02,4.54 -49.02,4.54 -56.68,6.99 -112.8,19.17 -167.34,36.12 -144.37,44.88 -277.71,125.56 -384.56,232.4 0,0 -21.9,21.98003 -21.9,21.98003 -71.38,76.61 -128.55,161.8 -172.23,256.93 -35.1,76.45 -60.4,162.01 -73.3,245.1 -4.15,26.71 -7.17,53.37 -9.02,80.3 0,0 -0.76,8.45 -0.76,8.45 0,0 -0.85,14.37 -0.85,14.37 0,0 0,9.29 0,9.29 0,0 -0.85,12.68 -0.85,12.68 0,0 0,43.95 0,43.95 0,0 0.82,10.14 0.82,10.14 0,0 0,11.83 0,11.83 0,0 0.88,10.99 0.88,10.99 0,0 2.39,32.12 2.39,32.12 3.19,32.98 7.66,65.51 14.17,98.04 23.2,115.96 67.84,227.61 131.92,327.08 55.76,86.56 125.26,163.52 205.64,227.82 79.84,63.87 173.3,116.17 269.62,150.56 59.81,21.36 121.35,37.06 184.24,46.13 23.36,3.36 46.65,5.85 70.15,7.45 0,0 8.46,0.77 8.46,0.77 0,0 14.36,0.85 14.36,0.85 0,0 9.3,0 9.3,0 0,0 12.68,0.84 12.68,0.84 0,0 43.95,0 43.95,0 0,0 14.37,-0.84 14.37,-0.84 0,0 50.71,-3.24 50.71,-3.24 60.12,-5.82 119.42,-16.5 177.48,-33.46 219.6,-64.14 407.88,-204.39 531.88,-396.88 45.74,-71.01 81.09,-147.79 106.79,-228.19 15.91,-49.82 26.87,-101.27 34.32,-152.98 0,0 6.61,-64.24 6.61,-64.24 0,0 0.77,-8.45 0.77,-8.45 0,0 0.84,-14.37 0.84,-14.37 0,0 0,-9.29 0,-9.29 0,0 0.85,-10.99 0.85,-10.99 0,0 0,-45.64 0,-45.64 0,0 -0.85,-13.52 -0.85,-13.52 0,0 -0.84,-22.82 -0.84,-22.82 0,0 -0.77,-8.45 -0.77,-8.45 0,0 -6.73,-65.08 -6.73,-65.08 -7.82,-56.23 -20.75,-111.8 -38.71,-165.66 -44.2,-132.61 -113.77,-249.26 -209.11,-351.59 0,0 -21.9,-21.98003 -21.9,-21.98003 -114.99,-114.99 -258.41,-197.7 -414.98,-241.23 -44.65,-12.41 -95.08,-22.74 -141.14,-27.67 0,0 -44.8,-4.16 -44.8,-4.16 0,0 -8.45,-0.77 -8.45,-0.77 0,0 -14.37,-0.85 -14.37,-0.85 0,0 -9.3,0 -9.3,0 0,0 -12.67,-0.72 -12.67,-0.72 0,0 -27.05,0 -27.05,0 0,0 -23.66,0 -23.66,0 z"
         style="display:inline;fill:#c9975c;fill-opacity:1"
         inkscape:label="Background1" />
      <path
         id="Selection1"
         fill="none"
         stroke="#000000"
         stroke-width="1"
         d="m 2147.2583,945.75527 c -4.44,0.63 -7.43,0.48 -11.84,0.49 0,0 -10.14,0.77 -10.14,0.77 0,0 -48.17,4.54 -48.17,4.54 -43.31,5.7 -86.03,15.49 -127.63,28.78 -164.47,52.57003 -306.3,166.24003 -395.03,314.12003 -12.29,20.48 -24.08,41.67 -34.05,63.39 -29.09,63.35 -49.07,125.41 -59.78,194.39 -3.46,22.26 -5.79,44.34 -7.33,66.77 0,0 -0.8,8.45 -0.8,8.45 0,0 0,10.14 0,10.14 0,0 -0.82,10.15 -0.82,10.15 0,0 0,35.49 0,35.49 0,0 0.85,18.6 0.85,18.6 0,0 0.77,10.14 0.77,10.14 1.82,26.55 4.87,52.32 9.3,78.6 18.02,106.84 63.05,210.65 126.36,298.35 40.03,55.45 88.57,104.71 142.48,146.7 59.33,46.23 127.83,83.01 198.61,108.28 47.91,17.11 99.9,29.84 150.45,35.89 0,0 44.79,4.17 44.79,4.17 0,0 8.45,0.8 8.45,0.8 0,0 10.14,0 10.14,0 0,0 10.15,0.82 10.15,0.82 0,0 35.49,0 35.49,0 0,0 14.37,-0.85 14.37,-0.85 0,0 43.95,-3.24 43.95,-3.24 53.77,-5.37 107.83,-17.36 158.89,-35.08 95.77,-33.24 183.61,-86.19 257.78,-155.3 0,0 16.91,-16.83 16.91,-16.83 86.94,-86.94 150.92,-195.86 183.89,-314.4 10.76,-38.71 18.48,-78.35 22.47,-118.33 0,0 2.47,-29.58 2.47,-29.58 0,0 0.8,-8.45 0.8,-8.45 0,0 0,-10.14 0,-10.14 0,0 0.82,-8.46 0.82,-8.46 0,0 0,-37.18 0,-37.18 0,0 -0.82,-10.15 -0.82,-10.15 0,0 0,-10.14 0,-10.14 0,0 -0.8,-8.45 -0.8,-8.45 0,0 -2.47,-29.58 -2.47,-29.58 -4.37,-43.76 -13.1,-87.19 -25.73,-129.31 -34.59,-115.28 -95.45,-218.24 -180.63,-303.42 0,0 -16.91,-16.83 -16.91,-16.83 -82.65,-77 -179.27,-132.22 -287.36,-164.65003 -42.12,-12.63 -85.55,-21.36 -129.31,-25.73 0,0 -29.58,-2.47 -29.58,-2.47 0,0 -8.45,-0.77 -8.45,-0.77 -15.7,-0.18 -48.4,-2.21 -62.54,-0.49 z"
         style="display:inline;fill:#e0c693;fill-opacity:1"
         inkscape:label="Background2" />
      <path
         id="Initials HL"
         fill="none"
         stroke="#000000"
         stroke-width="1"
         d="m 1596.7483,1151.9759 c 0.95,-20.05 7.28,-38.12 10.56,-49.02 6.76,-22.4 11.29,-46.79 39.73,-83.25 26.88,-34.49003 70.99,-58.74003 70.99,-58.74003 0,0 30.31,-18.59007 52.82,-25.36007 40.68,-12.23 75.11,-15.9 85.1,-15.75 9.99,0.16 57.56,4.02 80.14,9.41 38.48,9.19 50.71,21.55997 50.71,21.55997 0,0 31.63,21.9501 51.13,46.90013 19.79,25.33 27.47,53.67 27.47,53.67 0,0 9.52,28.95 10.56,54.09 1.07,25.57 -6.34,47.33 -6.34,47.33 0,0 -10.19,21.09 -22.39,39.3 -14.26,21.28 -30.85,40.15 -30.85,40.15 0,0 -21.6,18.41 -42.68,29.16 -22,11.21 -43.53,14.79 -43.53,14.79 0,0 -27.13,2.78 -52.82,-4.65 -25.44,-7.36 -49.45,-24.93 -49.45,-24.93 0,0 -13,-9.7 -20.7,-22.4 -7.94,-13.07 -13.95,-28.59 -13.95,-28.59 0,0 -5.69,-14.02 -8.45,-30.57 -3.49,-20.96 -0.84,-46.06 -0.84,-46.06 0,0 0.22,-18.62 6.33,-34.23 5.24,-13.37 16.48,-24.09 16.48,-24.09 0,0 12.62,-12.78 26.21,-21.98 13.88,-9.39 28.73,-15.21 28.73,-15.21 0,0 20.6,-6.4 37.61,-4.22 19.2,2.46 35.08,13.52 35.08,13.52 0,0 12.13,10.73 17.32,21.97 4.96,10.73 2.96,21.98 2.96,21.98 0,0 -0.11,10.83 -3.8,20.28 -3.91,9.98 -11.41,18.6 -11.41,18.6 0,0 -10.08,3.99 -18.17,4.22 -6.53,0.19 -11.41,-3.38 -11.41,-3.38 0,0 -8.92,-2.6 -12.89,-8.55 -2.54,-5.82 -2.33,-14.27 -2.33,-14.27 0,0 3.85,-7.61 8.45,-7.82 5.09,-0.22 9.4,8.24 9.4,8.24 0,0 1.36,2.21 3.28,3.06 1.68,0.76 3.95,0.18 3.95,0.18 0,0 4.59,-0.81 6.72,-3.76 2.24,-3.1 2.01,-8.35 2.01,-8.35 0,0 1.27,-11.83 -1.12,-17.18 -2.4,-5.36 -6.81,-9.97 -9.02,-12.4 -2.22,-2.44 -11.83,-6.2 -21.41,-5.92 -4.67,0.14 -17.22,5.56 -26.98,13.1 -10.29,7.96 -17.75,18.17 -20.35,23.81 -5.07,10.99 -9.58,29.86 -9.3,43.1 0.15,6.94 1.02,16.87 4.72,27.54 3.35,9.69 9.4,20.2 12.74,25.42 4.14,6.44 9.39,17.56 17.69,26.98 5.86,6.66 14.03,11.98 20.91,16.42 3.76,2.41 6.51,3.59 13.53,5.27 5.95,1.43 14.25,3.8 20.75,3.23 8.88,-0.81 18,-5.33 25.5,-8.15 9.11,-3.43 16.91,-5.22 20.52,-7.68 3.6,-2.46 24.23,-22.35 36.34,-39.94 10.39,-15.1 13.93,-29.21 15.49,-34.16 1.88,-5.96 2.46,-27.72 0.14,-49.09 -1.84,-16.99 -6.03,-33.54 -9.15,-43.03 -7.05,-21.41 -43.25,-61.35003 -53.53,-71.28003 -5.09,-4.92 -21.34,-15.12 -42.39,-22.66 -21.43,-7.7001 -47.77,-12.6901 -62.41,-12.8301 -12.47,-0.12 -29.73,1.47 -44.85,6.06 -20.06,6.1101 -37.31,16.2101 -43.9,21.8301 -11.54,9.86 -16.97,12.23 -31.76,26.41003 -15.61,14.97 -29.09,31.9 -29.09,31.9 0,0 -13.18,18.19 -24.37,36.98 -10.92,18.32 -19.86,37.26 -19.86,37.4 0,0.14 -7.76,21.26 -10.99,42.05 -3.1,19.97 -1.69,39.65 -1.69,39.65 0,0 -0.03,16.32 3.38,31.76 3.56,16.1 10.57,31.34 10.71,31.34 0.14,0 7.3,22.87 17.82,44.1 11.48,23.15 26.41,44.81 26.41,44.37 0,-0.46 22.97,23.29 46.48,43.31 20.19,17.19 41.42,31.06 41.42,31.06 0,0 94.66,64.24 94.66,64.24 0,0 62.96,59.16 78.6,78.6 15.64,19.44 25.78,40.99 38.03,62.54 12.26,21.55 30.43,69.31 38.88,93.82 8.45,24.51 10.14,72.68 10.14,103.95 0,31.27 -12.11,47.33 -20.28,67.62 -8.17,20.28 -29.86,58.31 -54.94,89.59 -25.07,31.27 -46.2,50.43 -65.92,65.07 -19.72,14.65 -72.69,29.86 -96.35,35.5 -23.67,5.64 -41.98,5.07 -78.6,5.07 -36.62,0 -74.38,-9.01 -97.2,-18.59 -22.82,-9.58 -57.19,-30.43 -80.01,-47.61 -22.82,-17.19 -39.72,-43.95 -55.78,-63.68 -16.06,-19.71 -34.37,-56.33 -43.39,-82.26 -9.01,-25.92 -11.83,-76.63 -11.83,-94.66 0,-18.02 9.58,-50.14 17.75,-69.3 8.17,-19.16 9.3,-21.41 20.28,-38.88 10.99,-17.47 19.16,-22.82 27.05,-32.12 7.89,-9.29 11.83,-13.8 26.2,-23.66 14.37,-9.86 22.25,-15.49 43.1,-27.05 20.86,-11.55 23.67,-9.57 36.35,-11.83 12.68,-2.26 42.54,-1.41 51.55,-0.84 9.02,0.56 31.55,7.32 46.49,11.83 14.93,4.5 21.69,10.42 35.92,17.75 14.22,7.32 15.63,9.29 24.09,16.9 8.45,7.61 15.49,20.01 21.55,28.31 6.06,8.31 11.13,16.49 15.63,26.2 4.51,9.72 8.73,19.59 10.99,30.43 2.26,10.84 7.04,26.9 8.03,38.46 0.99,11.55 -0.42,32.11 -1.27,46.48 -0.84,14.37 -1.12,21.41 -3.8,33.39 -2.68,11.97 -14.23,37.61 -20.71,49.86 -6.48,12.26 -13.76,19.38 -22.82,28.54 -9.06,9.16 -10.52,12.3 -17.4,17.52 -6.88,5.23 -17.71,13.89 -31.69,20.71 -14,6.82 -17.96,6.91 -33.74,7.61 -15.77,0.7 -23.66,-1.84 -35.07,-3.81 -11.41,-1.97 -17.89,-4.22 -26.2,-10.56 -8.31,-6.34 -11.13,-7.75 -19.02,-19.44 -7.88,-11.69 -7.32,-14.51 -12.67,-28.31 -5.35,-13.81 -5.08,-20.57 -6.77,-34.66 -1.69,-14.08 -0.27,-16.9 0.85,-27.46 1.12,-10.57 1.97,-14.23 5.07,-22.4 3.1,-8.17 4.79,-16.06 8.45,-21.98 3.66,-5.91 4.51,-8.17 9.72,-13.94 5.22,-5.77 9.07,-9.6 13.41,-14.33 4.34,-4.73 7.37,-6 11.95,-10.18 4.57,-4.19 12.48,-5.5 12.48,-5.5 0,0 8.76,-1.99 15.53,-2.91 6.76,-0.93 15.21,-1.54 22.58,-1.08 7.38,0.46 7.07,0.46 10.91,2.15 3.85,1.69 7.53,4.15 11.83,8.91 4.3,4.77 6.85,8.82 7.77,13.74 0.92,4.91 0.54,7.61 0.54,13.45 0,5.84 -0.62,7.85 -2.62,13.69 -1.99,5.84 -1.84,5.68 -4.45,10.45 -2.18,3.96 -3.02,5.04 -4.55,6.76 -0.31,0.35 -2.47,2.64 -4.37,4.92 -1.9,2.27 -4.8,6.62 -8.91,8.6 -4.11,1.98 -7.4,2.88 -12.91,2.46 -5.5,-0.42 -8.97,-2.33 -12.14,-4.92 -3.17,-2.58 -3.17,-7.97 -3.53,-11.36 -0.37,-3.41 -1.12,-5.48 1.07,-9.07 2.19,-3.6 2.36,-3.71 4.15,-4.46 1.79,-0.76 5.82,0.23 9.07,2.92 3.25,2.69 1.6,2.8 5.84,2.76 4.23,-0.03 6.54,-2.49 8.6,-4.91 2.07,-2.42 1.85,-2.44 2.46,-6.3 0.61,-3.87 1.18,-5.33 -0.15,-10.3 -1.33,-4.97 -2.79,-5.07 -5.23,-8.15 -2.43,-3.06 -2.63,-2.62 -7.07,-4.75 -4.43,-2.14 -6.76,-3.58 -12.13,-3.38 -5.39,0.18 -8.57,2.76 -10.91,4.91 -2.35,2.15 -9.17,9.26 -11.84,12.91 -2.66,3.65 -14.88,22.45 -16.29,27.66 -1.41,5.22 -2.6,22.26 -2.45,26.89 0.14,4.64 0.59,17.02 1.53,22.74 0.94,5.73 3.84,12.76 5.69,19.21 1.84,6.46 6.45,14.45 12.13,25.36 2.43,4.65 5.55,6.89 7.69,9.07 2.89,2.92 4.75,5.13 7.84,7.06 5.37,3.38 7.38,4.62 13.98,5.84 6.61,1.23 15.83,1.23 20.59,-0.3 4.76,-1.54 16.6,-5.23 21.98,-9.07 5.37,-3.85 11.06,-8.6 19.51,-17.06 8.46,-8.45 12.76,-13.21 17.48,-21.32 4.73,-8.1 10.49,-16.33 13.1,-22.82 2.61,-6.49 6.34,-25.35 6.34,-25.35 0,0 3.38,-15.22 4.23,-25.36 0.84,-10.14 -1.69,-24.3 -2.54,-28.31 -0.84,-4.02 -4.65,-22.82 -4.65,-22.82 0,0 -5.07,-23.25 -5.07,-23.25 0,0 -6.29,-17.32 -11.98,-27.77 -5.69,-10.45 -23.09,-31.81 -23.09,-31.81 0,0 -24.94,-22.4 -24.94,-22.4 0,0 -54.93,-18.59 -54.93,-18.59 0,0 -57.9,2.96 -57.9,2.96 0,0 -39.3,20.7 -39.72,20.7 -0.42,0 -32.12,31.27 -32.12,31.27 0,0 -25.35,47.33 -25.35,47.33 0,0 -12.68,57.48 -12.68,57.48 0,0 -1.27,62.54 -1.27,62.54 0,0 24.09,67.61 24.09,67.61 0,0 29.16,41 29.16,41.42 0,0.42 19.44,22.82 31.27,32.96 6.35,5.44 19.68,17.22 34.44,28.31 12.76,9.6 27.89,19.02 38.46,24.51 10.56,5.5 36.37,13.4 46.27,16.06 21.97,5.92 53.67,3.8 53.67,3.8 0,0 33.71,-3.88 64.93,-13.66 25.53,-8 48.18,-21.08 59.45,-29.58 14.86,-11.2 39.35,-35.82 57.19,-61.41 14.89,-21.35 24.25,-44.31 28.03,-52.13 4.1,-8.47 23.52,-85.92 23.25,-109.02 -0.28,-23.1 1.85,-50.5 -5.08,-79.73 -8.02,-33.81 -23.67,-66.41 -30.84,-80.01 -6.29,-11.92 -23.06,-41.04 -44.1,-67.9 -23.71,-30.29 -52.02,-58.27 -61.13,-66.49 -17.18,-15.49 -58.32,-44.79 -78.6,-59.58 -11.49,-8.38 -26.88,-20.2 -41.41,-30.43 -11.14,-7.83 -21.51,-13.65 -30.85,-22.82 -9.35,-9.16 -15.66,-21.25 -23.25,-32.11 -9.91,-14.19 -19.86,-26.2 -19.86,-26.2 0,0 -24.51,-32.12 -39.3,-51.98 -6.89,-9.26 -8.08,-21.23 -11.41,-30.85 -3.82,-11.03 -9.38,-19.76 -11.41,-31.27 -1.95,-11.07 -6.49,-34.22 -5.49,-55.36 z m 791.51,350.75 c 10.63,2.53 122.53,26.22 215.52,32.11 69.58,4.41 121.59,-6.41 151.43,-7.68 69.73,-2.96 148.18,-50.21 148.18,-50.21 0,0 -28.04,26.79 -59.02,52.26 -25.08,20.62 -55.02,38 -70.71,43.67 -35.08,12.67 -165.66,34.65 -165.66,34.65 0,0 -22.1,24.72 -38.45,51.98 -16.61,27.68 -27.47,57.89 -27.47,57.89 0,0 29.62,-27.56 52.82,-39.72 20.1,-10.54 38.88,-5.07 38.88,-5.07 0,0 -9.51,29.37 -9.51,29.37 0,0 -11.62,-5.07 -19.65,-0.64 -2.43,1.35 -12.07,3.97 -21.55,11.62 -9.03,7.29 -17.61,19.4 -26.62,27.9 -12.7,11.96 -11.41,6.97 -24.51,19.43 -13.1,12.47 14.79,181.51 77.75,250.39 0,0 51.23,79.85 55.22,142.83 5.49,86.6 -36.06,162.84 -36.06,162.84 0,0 -36.07,46.94 -80.58,74.38 -42.49,26.2 -67.04,30.28 -94.51,36.2 -13.59,2.92 -82.59,7.53 -134.81,-13.95 -53.34,-21.94 -89.88,-70.18 -101.84,-87.05 -12.92,-18.23 -58.6,-108.91 -55.78,-187.21 2.34,-65.07 51.1,-120.11 61.27,-131.42 12.53,-13.95 47.8,-44.32 89.17,-59.16 32.59,-11.69 71.91,-10.21 86.63,-7.61 17.06,3.02 55.51,19.73 80.29,43.95 23.7,23.16 34.08,53.68 36.77,63.81 2.5,9.45 8.28,55.81 -1.27,87.9 -11.39,38.25 -39.37,62.8 -49.02,71.41 -17.75,15.84 -52.44,33.19 -84.75,19.82 -14.27,-5.89 -28.34,-17.43 -36.73,-32.26 -10.41,-18.4 -13.5,-40.45 -13.98,-46.57 -0.82,-10.26 -0.15,-40.58 10.14,-61.47 11.95,-24.26 34.33,-38.79 42.07,-41.37 7.27,-2.42 31.73,-7.63 44.41,1.7 12.41,9.14 15.58,30.88 16.36,37.46 0.67,5.65 -1.2,20.94 -6.33,28.5 -6.96,10.22 -21.03,13.79 -28.12,11.67 -5.89,-1.76 -12.18,-9.57 -12.61,-16.74 -0.47,-7.87 5.52,-14.96 12.61,-11.99 13.55,5.68 17.13,-0.23 14.67,-10.87 -2.46,-10.64 -4.3,-17.48 -10.22,-22.17 -3.16,-2.5 -16.61,-2.13 -26.28,4.76 -8.44,6.02 -13.22,17.96 -15.98,25.06 -3.44,8.84 -8.54,35.37 -3.94,58.9 3.32,16.92 13.32,31.72 24.72,39.94 15.3,11.03 59.45,-4.66 79.87,-43.1 15.98,-30.08 11.19,-81.46 8.03,-95.93 -3.68,-16.89 -19.04,-52.53 -44.79,-70.15 -24.51,-16.77 -59.03,-16.01 -78.6,-13.95 -18.66,1.96 -64.75,21.24 -89.59,51.98 -28.63,35.42 -34.93,83.01 -35.55,86.37 -1.17,6.28 -3.01,9.76 -1.22,31.53 0.9,10.9 6.73,108.48 49.02,167.77 19.72,27.65 41.46,54.08 66.77,66.77 28.87,14.47 60.62,13.21 68.04,13.1 17.34,-0.25 58,-9.41 96.77,-37.19 27.04,-19.38 51.08,-52.67 74.38,-77.9 43.06,-46.64 32.11,-105.08 32.11,-105.08 0,0 -1.12,-71.27 -30.42,-135.51 -20.45,-56.56 -38.31,-74.94 -58.32,-110.01 -20,-35.08 -35.07,-94.45 -34.86,-148.33 0,0 -31.22,9.35 -47.97,-0.85 -16.94,-10.3 -19.01,-17.75 -20.7,-26.83 -0.92,-4.89 0.7,-21.54 7.6,-23.24 5.93,-1.47 16.61,10.9 23.25,18.8 14.36,17.12 41.41,5.07 41.41,5.07 0,0 10.91,-40.2 30.85,-75.64 18.9,-33.6 46.91,-62.54 46.91,-62.54 0,0 -48.14,-10.07 -98.89,-27.47 -63.81,-21.88 -113.53,-48.74 -133.26,-52.68 -19.72,-3.95 -92.33,-18.72 -138.04,8.73 -63.46,38.1 -91.85,70.43 -86.78,125.36 2.8,30.3 10.73,73.2 36.35,100.58 20.84,22.28 44.51,32.4 61.98,34.09 8.88,0.86 60.19,4.84 86.77,-34.37 25.65,-37.84 38.88,-85.36 26.76,-118.89 -5.84,-16.17 -13.99,-39.16 -30.42,-52.68 -17.64,-14.52 -43.87,-18.93 -58.6,-17.18 -12.37,1.47 -36.17,9.75 -46.2,24.79 -13.05,19.55 -12.04,28.22 -12.45,46.56 -0.19,8.44 1.92,34.73 16.44,47.02 17.03,14.41 47.48,13.8 57.01,5.23 17.67,-15.88 23.41,-43.5 5.69,-57.32 -7.37,-5.75 -13.9,-8.51 -17.37,-7.38 -4.87,1.6 -8.6,5.53 -5.07,8.91 3.54,3.39 9.99,10.45 7.38,17.83 -1.18,3.31 -11.68,10.61 -18.13,4.92 -6.46,-5.69 -10.16,-9.2 -11.53,-16.9 -1.41,-7.92 1.69,-15.84 4.15,-18.75 2.46,-2.93 16.13,-14.25 32.52,-13.88 16.21,0.38 25.07,5.15 34.18,13.1 4.35,3.77 11.25,20.56 9.98,35.81 -1.4,16.78 -13.49,33.85 -17.16,39.65 -3.42,5.38 -29.66,21.07 -53.11,20.07 -24.72,-1.05 -34.5,-7.04 -46.62,-18.95 -12.11,-11.9 -29.83,-33.13 -28.38,-67.04 1.36,-31.95 23.87,-53.04 34.01,-64.8 4.79,-5.55 22.37,-14.72 42.9,-17.61 23.01,-3.24 36.97,-2.54 48.95,0.14 11.97,2.67 45.82,15.85 72.12,44.65 23.72,25.99 23.38,45.5 24.93,67.62 0.76,10.86 -1.38,35.01 -9.72,58.74 -8.65,24.58 -23.77,48.75 -37.61,60.01 -10.22,8.31 -49.4,40.13 -82.4,40.56 -54.79,0.72 -73.26,-2.81 -109.31,-34.37 -18.13,-15.85 -53.26,-68.66 -59.73,-118.18 -6.4,-49 7.61,-77.33 15.78,-94.8 8.16,-17.46 38.31,-53.11 83.39,-72.12 45.08,-19.02 32.26,-12.68 82.82,-16.34 50.58,-3.67 50.22,0.91 73.25,2.81 23.04,1.91 38.88,5.71 57.48,10.15 z"
         style="display:inline;fill:#dadae3;fill-opacity:1"
         inkscape:label="InitialsHL" />
      <path
         id="Initials"
         fill="none"
         stroke="#000000"
         stroke-width="1"
         d="m 1619.7483,1143.9759 c 0.95,-20.05 7.28,-38.12 10.56,-49.02 6.76,-22.4 11.29,-46.79 39.73,-83.25 26.88,-34.49003 70.99,-58.74013 70.99,-58.74013 0,0 30.31,-18.58997 52.82,-25.35997 40.68,-12.23 75.11,-15.90003 85.1,-15.75003 9.99,0.16 57.56,4.02003 80.14,9.41003 38.48,9.19 50.71,21.55997 50.71,21.55997 0,0 31.63,21.9501 51.13,46.9001 19.79,25.33003 27.47,53.67003 27.47,53.67003 0,0 9.52,28.95 10.56,54.09 1.07,25.57 -6.34,47.33 -6.34,47.33 0,0 -10.19,21.09 -22.39,39.3 -14.26,21.28 -30.85,40.15 -30.85,40.15 0,0 -21.6,18.41 -42.68,29.16 -22,11.21 -43.53,14.79 -43.53,14.79 0,0 -27.13,2.78 -52.82,-4.65 -25.44,-7.36 -49.45,-24.93 -49.45,-24.93 0,0 -13,-9.7 -20.7,-22.4 -7.94,-13.07 -13.95,-28.59 -13.95,-28.59 0,0 -5.69,-14.02 -8.45,-30.57 -3.49,-20.96 -0.84,-46.06 -0.84,-46.06 0,0 0.22,-18.62 6.33,-34.23 5.24,-13.37 16.48,-24.09 16.48,-24.09 0,0 12.62,-12.78 26.21,-21.98 13.88,-9.39 28.73,-15.21 28.73,-15.21 0,0 20.6,-6.4 37.61,-4.22 19.2,2.46 35.08,13.52 35.08,13.52 0,0 12.13,10.73 17.32,21.97 4.96,10.73 2.96,21.98 2.96,21.98 0,0 -0.11,10.83 -3.8,20.28 -3.91,9.98 -11.41,18.6 -11.41,18.6 0,0 -10.08,3.99 -18.17,4.22 -6.53,0.19 -11.41,-3.38 -11.41,-3.38 0,0 -8.92,-2.6 -12.89,-8.55 -2.54,-5.82 -2.33,-14.27 -2.33,-14.27 0,0 3.85,-7.61 8.45,-7.82 5.09,-0.22 9.4,8.24 9.4,8.24 0,0 1.36,2.21 3.28,3.06 1.68,0.76 3.95,0.18 3.95,0.18 0,0 4.59,-0.81 6.72,-3.76 2.24,-3.1 2.01,-8.35 2.01,-8.35 0,0 1.27,-11.83 -1.12,-17.18 -2.4,-5.36 -6.81,-9.97 -9.02,-12.4 -2.22,-2.44 -11.83,-6.2 -21.41,-5.92 -4.67,0.14 -17.22,5.56 -26.98,13.1 -10.29,7.96 -17.75,18.17 -20.35,23.81 -5.07,10.99 -9.58,29.86 -9.3,43.1 0.15,6.94 1.02,16.87 4.72,27.54 3.35,9.69 9.4,20.2 12.74,25.42 4.14,6.44 9.39,17.56 17.69,26.98 5.86,6.66 14.03,11.98 20.91,16.42 3.76,2.41 6.51,3.59 13.53,5.27 5.95,1.43 14.25,3.8 20.75,3.23 8.88,-0.81 18,-5.33 25.5,-8.15 9.11,-3.43 16.91,-5.22 20.52,-7.68 3.6,-2.46 24.23,-22.35 36.34,-39.94 10.39,-15.1 13.93,-29.21 15.49,-34.16 1.88,-5.96 2.46,-27.72 0.14,-49.09 -1.84,-16.99 -6.03,-33.54 -9.15,-43.03 -7.05,-21.41 -43.25,-61.35003 -53.53,-71.28003 -5.09,-4.92 -21.34,-15.12 -42.39,-22.6601 -21.43,-7.7 -47.77,-12.68997 -62.41,-12.82997 -12.47,-0.12 -29.73,1.47 -44.85,6.05997 -20.06,6.11 -37.31,16.2101 -43.9,21.8301 -11.54,9.86 -16.97,12.23 -31.76,26.41 -15.61,14.97003 -29.09,31.90003 -29.09,31.90003 0,0 -13.18,18.19 -24.37,36.98 -10.92,18.32 -19.86,37.26 -19.86,37.4 0,0.14 -7.76,21.26 -10.99,42.05 -3.1,19.97 -1.69,39.65 -1.69,39.65 0,0 -0.03,16.32 3.38,31.76 3.56,16.1 10.57,31.34 10.71,31.34 0.14,0 7.3,22.87 17.82,44.1 11.48,23.15 26.41,44.81 26.41,44.37 0,-0.46 22.97,23.29 46.48,43.31 20.19,17.19 41.42,31.06 41.42,31.06 0,0 94.66,64.24 94.66,64.24 0,0 62.96,59.16 78.6,78.6 15.64,19.44 25.78,40.99 38.03,62.54 12.26,21.55 30.43,69.31 38.88,93.82 8.45,24.51 10.14,72.68 10.14,103.95 0,31.27 -12.11,47.33 -20.28,67.62 -8.17,20.28 -29.86,58.31 -54.94,89.59 -25.07,31.27 -46.2,50.43 -65.92,65.07 -19.72,14.65 -72.69,29.86 -96.35,35.5 -23.67,5.64 -41.98,5.07 -78.6,5.07 -36.62,0 -74.38,-9.01 -97.2,-18.59 -22.82,-9.58 -57.19,-30.43 -80.01,-47.61 -22.82,-17.19 -39.72,-43.95 -55.78,-63.68 -16.06,-19.71 -34.37,-56.33 -43.39,-82.26 -9.01,-25.92 -11.83,-76.63 -11.83,-94.66 0,-18.02 9.58,-50.14 17.75,-69.3 8.17,-19.16 9.3,-21.41 20.28,-38.88 10.99,-17.47 19.16,-22.82 27.05,-32.12 7.89,-9.29 11.83,-13.8 26.2,-23.66 14.37,-9.86 22.25,-15.49 43.1,-27.05 20.86,-11.55 23.67,-9.57 36.35,-11.83 12.68,-2.26 42.54,-1.41 51.55,-0.84 9.02,0.56 31.55,7.32 46.49,11.83 14.93,4.5 21.69,10.42 35.92,17.75 14.22,7.32 15.63,9.29 24.09,16.9 8.45,7.61 15.49,20.01 21.55,28.31 6.06,8.31 11.13,16.49 15.63,26.2 4.51,9.72 8.73,19.59 10.99,30.43 2.26,10.84 7.04,26.9 8.03,38.46 0.99,11.55 -0.42,32.11 -1.27,46.48 -0.84,14.37 -1.12,21.41 -3.8,33.39 -2.68,11.97 -14.23,37.61 -20.71,49.86 -6.48,12.26 -13.76,19.38 -22.82,28.54 -9.06,9.16 -10.52,12.3 -17.4,17.52 -6.88,5.23 -17.71,13.89 -31.69,20.71 -14,6.82 -17.96,6.91 -33.74,7.61 -15.77,0.7 -23.66,-1.84 -35.07,-3.81 -11.41,-1.97 -17.89,-4.22 -26.2,-10.56 -8.31,-6.34 -11.13,-7.75 -19.02,-19.44 -7.88,-11.69 -7.32,-14.51 -12.67,-28.31 -5.35,-13.81 -5.08,-20.57 -6.77,-34.66 -1.69,-14.08 -0.27,-16.9 0.85,-27.46 1.12,-10.57 1.97,-14.23 5.07,-22.4 3.1,-8.17 4.79,-16.06 8.45,-21.98 3.66,-5.91 4.51,-8.17 9.72,-13.94 5.22,-5.77 9.07,-9.6 13.41,-14.33 4.34,-4.73 7.37,-6 11.95,-10.18 4.57,-4.19 12.48,-5.5 12.48,-5.5 0,0 8.76,-1.99 15.53,-2.91 6.76,-0.93 15.21,-1.54 22.58,-1.08 7.38,0.46 7.07,0.46 10.91,2.15 3.85,1.69 7.53,4.15 11.83,8.91 4.3,4.77 5.69,8.45 6.61,13.37 0.92,4.92 0.47,8.3 0.47,14.14 0,5.84 0.61,7.53 -1.39,13.37 -1.99,5.84 -1.84,5.68 -4.45,10.45 -2.18,3.96 -3.02,5.04 -4.55,6.76 -0.31,0.35 -2.47,2.64 -4.37,4.92 -1.9,2.27 -4.8,6.62 -8.91,8.6 -4.11,1.98 -7.4,2.88 -12.91,2.46 -5.5,-0.42 -8.97,-2.33 -12.14,-4.92 -3.17,-2.58 -3.17,-7.97 -3.53,-11.36 -0.37,-3.41 -1.12,-5.48 1.07,-9.07 2.19,-3.6 2.36,-3.71 4.15,-4.46 1.79,-0.76 5.82,0.23 9.07,2.92 3.25,2.69 1.6,2.8 5.84,2.76 4.23,-0.03 6.54,-2.49 8.6,-4.91 2.07,-2.42 1.85,-2.44 2.46,-6.3 0.61,-3.87 1.18,-5.33 -0.15,-10.3 -1.33,-4.97 -2.79,-5.07 -5.23,-8.15 -2.43,-3.06 -2.63,-2.62 -7.07,-4.75 -4.43,-2.14 -6.76,-3.58 -12.13,-3.38 -5.39,0.18 -8.57,2.76 -10.91,4.91 -2.35,2.15 -9.17,9.26 -11.84,12.91 -2.66,3.65 -14.88,22.45 -16.29,27.66 -1.41,5.22 -2.6,22.26 -2.45,26.89 0.14,4.64 0.59,17.02 1.53,22.74 0.94,5.73 3.84,12.76 5.69,19.21 1.84,6.46 6.45,14.45 12.13,25.36 2.43,4.65 5.55,6.89 7.69,9.07 2.89,2.92 4.75,5.13 7.84,7.06 5.37,3.38 7.38,4.62 13.98,5.84 6.61,1.23 15.83,1.23 20.59,-0.3 4.76,-1.54 16.6,-5.23 21.98,-9.07 5.37,-3.85 11.06,-8.6 19.51,-17.06 8.46,-8.45 12.76,-13.21 17.48,-21.32 4.73,-8.1 10.49,-16.33 13.1,-22.82 2.61,-6.49 6.34,-25.35 6.34,-25.35 0,0 3.38,-15.22 4.23,-25.36 0.84,-10.14 -1.69,-24.3 -2.54,-28.31 -0.84,-4.02 -4.65,-22.82 -4.65,-22.82 0,0 -5.07,-23.25 -5.07,-23.25 0,0 -6.29,-17.32 -11.98,-27.77 -5.69,-10.45 -23.09,-31.81 -23.09,-31.81 0,0 -24.94,-22.4 -24.94,-22.4 0,0 -54.93,-18.59 -54.93,-18.59 0,0 -57.9,2.96 -57.9,2.96 0,0 -39.3,20.7 -39.72,20.7 -0.42,0 -32.12,31.27 -32.12,31.27 0,0 -25.35,47.33 -25.35,47.33 0,0 -12.68,57.48 -12.68,57.48 0,0 -1.27,62.54 -1.27,62.54 0,0 24.09,67.61 24.09,67.61 0,0 29.16,41 29.16,41.42 0,0.42 19.44,22.82 31.27,32.96 6.35,5.44 19.68,17.22 34.44,28.31 12.76,9.6 27.89,19.02 38.46,24.51 10.56,5.5 36.37,13.4 46.27,16.06 21.97,5.92 53.67,3.8 53.67,3.8 0,0 33.71,-3.88 64.93,-13.66 25.53,-8 48.18,-21.08 59.45,-29.58 14.86,-11.2 39.35,-35.82 57.19,-61.41 14.89,-21.35 24.25,-44.31 28.03,-52.13 4.1,-8.47 23.52,-85.92 23.25,-109.02 -0.28,-23.1 1.85,-50.5 -5.08,-79.73 -8.02,-33.81 -23.67,-66.41 -30.84,-80.01 -6.29,-11.92 -23.06,-41.04 -44.1,-67.9 -23.71,-30.29 -52.02,-58.27 -61.13,-66.49 -17.18,-15.49 -58.32,-44.79 -78.6,-59.58 -11.49,-8.38 -26.88,-20.2 -41.41,-30.43 -11.14,-7.83 -21.51,-13.65 -30.85,-22.82 -9.35,-9.16 -15.66,-21.25 -23.25,-32.11 -9.91,-14.19 -19.86,-26.2 -19.86,-26.2 0,0 -24.51,-32.12 -39.3,-51.98 -6.89,-9.26 -8.08,-21.23 -11.41,-30.85 -3.82,-11.03 -9.38,-19.76 -11.41,-31.27 -1.95,-11.07 -6.49,-34.22 -5.49,-55.36 z m 791.51,350.75 c 10.63,2.53 122.53,26.22 215.52,32.11 69.58,4.41 121.59,-6.41 151.43,-7.68 69.73,-2.96 148.18,-50.21 148.18,-50.21 0,0 -28.04,26.79 -59.02,52.26 -25.08,20.62 -55.02,38 -70.71,43.67 -35.08,12.67 -165.66,34.65 -165.66,34.65 0,0 -22.1,24.72 -38.45,51.98 -16.61,27.68 -27.47,57.89 -27.47,57.89 0,0 29.62,-27.56 52.82,-39.72 20.1,-10.54 38.88,-5.07 38.88,-5.07 0,0 -9.51,29.37 -9.51,29.37 0,0 -11.62,-5.07 -19.65,-0.64 -2.43,1.35 -12.07,3.97 -21.55,11.62 -9.03,7.29 -17.61,19.4 -26.62,27.9 -12.7,11.96 -11.41,6.97 -24.51,19.43 -13.1,12.47 14.79,181.51 77.75,250.39 0,0 51.23,79.85 55.22,142.83 5.49,86.6 -36.06,162.84 -36.06,162.84 0,0 -36.07,46.94 -80.58,74.38 -42.49,26.2 -67.04,30.28 -94.51,36.2 -13.59,2.92 -82.59,7.53 -134.81,-13.95 -53.34,-21.94 -89.88,-70.18 -101.84,-87.05 -12.92,-18.23 -58.6,-108.91 -55.78,-187.21 2.34,-65.07 51.1,-120.11 61.27,-131.42 12.53,-13.95 47.8,-44.32 89.17,-59.16 32.59,-11.69 71.91,-10.21 86.63,-7.61 17.06,3.02 55.51,19.73 80.29,43.95 23.7,23.16 34.08,53.68 36.77,63.81 2.5,9.45 8.28,55.81 -1.27,87.9 -11.39,38.25 -39.37,62.8 -49.02,71.41 -17.75,15.84 -52.44,33.19 -84.75,19.82 -14.27,-5.89 -28.34,-17.43 -36.73,-32.26 -10.41,-18.4 -13.5,-40.45 -13.98,-46.57 -0.82,-10.26 -0.15,-40.58 10.14,-61.47 11.95,-24.26 34.33,-38.79 42.07,-41.37 7.27,-2.42 27.47,-4.53 40.14,4.8 12.42,9.14 17.4,29.62 18.17,36.19 0.67,5.66 1.26,19.11 -3.87,26.67 -6.96,10.22 -21.03,13.79 -28.12,11.67 -5.89,-1.76 -12.18,-9.57 -12.61,-16.74 -0.47,-7.87 5.52,-14.96 12.61,-11.99 13.55,5.68 17.13,-0.23 14.67,-10.87 -2.46,-10.64 -4.3,-17.48 -10.22,-22.17 -3.16,-2.5 -16.61,-2.13 -26.28,4.76 -8.44,6.02 -13.22,17.96 -15.98,25.06 -3.44,8.84 -8.54,35.37 -3.94,58.9 3.32,16.92 13.32,31.72 24.72,39.94 15.3,11.03 59.45,-4.66 79.87,-43.1 15.98,-30.08 11.19,-81.46 8.03,-95.93 -3.68,-16.89 -19.04,-52.53 -44.79,-70.15 -24.51,-16.77 -59.03,-16.01 -78.6,-13.95 -18.66,1.96 -64.75,21.24 -89.59,51.98 -28.63,35.42 -34.93,83.01 -35.55,86.37 -1.17,6.28 -3.01,9.76 -1.22,31.53 0.9,10.9 6.73,108.48 49.02,167.77 19.72,27.65 41.46,54.08 66.77,66.77 28.87,14.47 60.62,13.21 68.04,13.1 17.34,-0.25 58,-9.41 96.77,-37.19 27.04,-19.38 51.08,-52.67 74.38,-77.9 43.06,-46.64 32.11,-105.08 32.11,-105.08 0,0 -1.12,-71.27 -30.42,-135.51 -20.45,-56.56 -38.31,-74.94 -58.32,-110.01 -20,-35.08 -35.07,-94.45 -34.86,-148.33 0,0 -31.22,9.35 -47.97,-0.85 -16.94,-10.3 -19.01,-17.75 -20.7,-26.83 -0.92,-4.89 0.7,-21.54 7.6,-23.24 5.93,-1.47 16.61,10.9 23.25,18.8 14.36,17.12 41.41,5.07 41.41,5.07 0,0 10.91,-40.2 30.85,-75.64 18.9,-33.6 46.91,-62.54 46.91,-62.54 0,0 -48.14,-10.07 -98.89,-27.47 -63.81,-21.88 -113.53,-48.74 -133.26,-52.68 -19.72,-3.95 -92.33,-18.72 -138.04,8.73 -63.46,38.1 -91.85,70.43 -86.78,125.36 2.8,30.3 10.73,73.2 36.35,100.58 20.84,22.28 44.51,32.4 61.98,34.09 8.88,0.86 60.19,4.84 86.77,-34.37 25.65,-37.84 38.88,-85.36 26.76,-118.89 -5.84,-16.17 -13.99,-39.16 -30.42,-52.68 -17.64,-14.52 -43.87,-18.93 -58.6,-17.18 -12.37,1.47 -36.17,9.75 -46.2,24.79 -13.05,19.55 -12.04,28.22 -12.45,46.56 -0.19,8.44 1.92,34.73 16.44,47.02 17.03,14.41 47.48,13.8 57.01,5.23 17.67,-15.88 23.41,-43.5 5.69,-57.32 -7.37,-5.75 -13.9,-8.51 -17.37,-7.38 -4.87,1.6 -8.6,5.53 -5.07,8.91 3.54,3.39 9.99,10.45 7.38,17.83 -1.18,3.31 -11.68,10.61 -18.13,4.92 -6.46,-5.69 -10.16,-9.2 -11.53,-16.9 -1.41,-7.92 1.69,-15.84 4.15,-18.75 2.46,-2.93 13.89,-12.82 30.27,-12.45 16.21,0.37 25.21,5.37 34.32,13.32 4.34,3.78 13.36,18.91 12.09,34.16 -1.4,16.78 -13.49,33.85 -17.16,39.65 -3.42,5.38 -29.66,21.07 -53.11,20.07 -24.72,-1.05 -34.5,-7.04 -46.62,-18.95 -12.11,-11.9 -29.83,-33.13 -28.38,-67.04 1.36,-31.95 23.87,-53.04 34.01,-64.8 4.79,-5.55 22.37,-14.72 42.9,-17.61 23.01,-3.24 36.97,-2.54 48.95,0.14 11.97,2.67 45.82,15.85 72.12,44.65 23.72,25.99 23.38,45.5 24.93,67.62 0.76,10.86 -1.38,35.01 -9.72,58.74 -8.65,24.58 -23.77,48.75 -37.61,60.01 -10.22,8.31 -49.4,40.13 -82.4,40.56 -54.79,0.72 -73.26,-2.81 -109.31,-34.37 -18.13,-15.85 -53.26,-68.66 -59.73,-118.18 -6.4,-49 7.61,-77.33 15.78,-94.8 8.16,-17.46 38.31,-53.11 83.39,-72.12 45.08,-19.02 32.26,-12.68 82.82,-16.34 50.58,-3.67 50.22,0.91 73.25,2.81 23.04,1.91 38.88,5.71 57.48,10.15 z"
         style="fill:#8d5348;fill-opacity:1"
         inkscape:label="Initials" />
    </g>
  </g>
</svg>
